<svg xmlns="http://www.w3.org/2000/svg" width="127" height="22" viewBox="0 0 127 22">
<defs>
    <style>
      .cls-1 {
        fill: #E6E6E6;
        fill-rule: evenodd;
      }
    </style>
  </defs>
  <path  class="cls-1" d="M1053.63,776.166l0.98,7.833-7.11-3.352L1040.39,784l0.98-7.833L1036,770.4l7.71-1.489L1047.5,762l3.79,6.913L1059,770.4ZM1028.61,784l-7.11-3.352L1014.39,784l0.98-7.833L1010,770.4l7.71-1.489L1021.5,762l3.79,6.913L1033,770.4l-5.37,5.763Zm-26,0-7.11-3.352L988.393,784l0.974-7.833L984,770.4l7.708-1.489L995.5,762l3.79,6.913L1007,770.4l-5.37,5.763Zm-26,0-7.107-3.352L962.393,784l0.974-7.833L958,770.4l7.708-1.489L969.5,762l3.79,6.913L981,770.4l-5.365,5.763Zm-26,0-7.107-3.352L936.393,784l0.974-7.833L932,770.4l7.708-1.489L943.5,762l3.79,6.913L955,770.4l-5.365,5.763Z" transform="translate(-932 -762)"/>
</svg>