<svg width="0" height="0" class="hidden">
    <symbol xmlns="http://www.w3.org/2000/svg" viewBox="0 0 25 25" id="b-nav-price">
        <path fill-rule="evenodd" clip-rule="evenodd"
              d="M15.7361 2.00011C15.176 1.99425 14.6377 2.2139 14.242 2.60959L2.60953 14.2421C1.7968 15.0548 1.7968 16.3726 2.60953 17.1854L7.81487 22.3902C8.62756 23.2032 9.94534 23.2034 10.758 22.3904L22.3907 10.7582C22.7863 10.3626 23.0061 9.82378 23.0002 9.26402L22.9452 4.11429C22.933 2.982 22.0183 2.06723 20.886 2.05506M20.886 2.05506L15.7361 2.00011ZM12.8278 1.19538C13.604 0.419174 14.6598 -0.0113334 15.7573 0.000226948L20.9074 0.0551787C23.1275 0.0789852 24.9213 1.87272 24.9451 4.09285L25 9.24281C25.0116 10.3398 24.5812 11.3962 23.8049 12.1725L12.1726 23.8043C10.5787 25.3988 7.99435 25.3988 6.40054 23.8043L1.19535 18.5996C-0.398427 17.0058 -0.398462 14.4216 1.19532 12.8279L12.8278 1.19538Z"></path>
        <path fill-rule="evenodd" clip-rule="evenodd"
              d="M18.2437 5.67361C17.6456 5.67361 17.1607 6.15848 17.1607 6.75658C17.1607 7.35469 17.6456 7.83955 18.2437 7.83955C18.8418 7.83955 19.3266 7.35469 19.3266 6.75658C19.3266 6.15848 18.8418 5.67361 18.2437 5.67361ZM15.1607 6.75658C15.1607 5.05391 16.541 3.67361 18.2437 3.67361C19.9464 3.67361 21.3266 5.05391 21.3266 6.75658C21.3266 8.45926 19.9464 9.83955 18.2437 9.83955C16.541 9.83955 15.1607 8.45926 15.1607 6.75658Z"></path>
    </symbol>
    <symbol xmlns="http://www.w3.org/2000/svg" viewBox="0 0 23 23" id="b-nav-chars">
        <path d="M13.4695 20.6674C13.4707 21.7728 12.5749 22.6695 11.4695 22.6695H10.5791C9.47457 22.6695 8.57914 21.7741 8.57914 20.6695V19.9067C7.19384 19.5018 5.92833 18.7648 4.8925 17.7598L4.19937 18.1641C3.24652 18.7199 2.02355 18.3993 1.46595 17.4475L1.0107 16.6704C0.452467 15.7175 0.772237 14.4925 1.725 13.934L2.45488 13.5062C2.29045 12.8287 2.20736 12.1341 2.20738 11.4369C2.20468 10.6784 2.30144 9.92269 2.49517 9.18926L1.72313 8.73601C0.771214 8.17715 0.452048 6.95275 1.01002 6.00032L1.46432 5.22483C2.02256 4.27193 3.24749 3.95186 4.20053 4.50986L5.01625 4.98747C6.02647 4.04328 7.24669 3.35277 8.57626 2.97291V2C8.57626 0.895432 9.47169 0 10.5763 0H11.4688C12.5733 0 13.4688 0.89543 13.4688 2V2.96716C14.7983 3.34702 16.0185 4.03752 17.0288 4.98171L17.8457 4.50525C18.7985 3.94952 20.0214 4.27016 20.579 5.22192L21.034 5.99858C21.5923 6.9517 21.2723 8.177 20.3191 8.73529L19.5441 9.18926C19.9154 10.6024 19.9313 12.0854 19.5901 13.5062L20.32 13.934C21.2728 14.4925 21.5925 15.7175 21.0343 16.6704L20.5806 17.4448C20.0224 18.3977 18.7976 18.7178 17.8445 18.1598L17.1611 17.7598C16.1233 18.765 14.8558 19.502 13.4688 19.9067L13.4695 20.6674ZM10.3053 20.4434C10.3056 20.7193 10.5294 20.9428 10.8053 20.9428H11.2449C11.521 20.9428 11.7449 20.7189 11.7449 20.4428V18.5253L12.4356 18.3843C13.958 18.0704 15.3363 17.268 16.3611 16.0992L16.8302 15.5639L18.5234 16.5551C18.7614 16.6944 19.0673 16.6147 19.207 16.377L19.4319 15.9945C19.5718 15.7566 19.4925 15.4504 19.2547 15.3103L17.5554 14.3091L17.7742 13.6472C18.2594 12.1595 18.2412 10.5534 17.7223 9.07702L17.4691 8.40358L19.2527 7.36121C19.4914 7.22171 19.5716 6.91499 19.4317 6.67653L19.2069 6.29338C19.0673 6.05529 18.7611 5.97542 18.5229 6.11494L16.7237 7.16895L16.2546 6.6538C15.2442 5.54457 13.9064 4.78645 12.4356 4.48959L11.7449 4.35144V2.22676C11.7449 1.95062 11.521 1.72676 11.2449 1.72676H10.8059C10.5298 1.72676 10.3059 1.95062 10.3059 2.22676V4.35144L9.61232 4.48959C8.14235 4.78645 6.80546 5.54463 5.79617 6.6538L5.32419 7.16895L3.52495 6.11494C3.28678 5.97542 2.98061 6.05529 2.84095 6.29338L2.61604 6.67678C2.47622 6.91514 2.55628 7.22174 2.79479 7.36131L4.57592 8.40358L4.33993 9.07702C3.81724 10.5527 3.79902 12.1601 4.28813 13.6472L4.50397 14.3091L2.79405 15.3112C2.55585 15.4508 2.47587 15.757 2.6154 15.9952L2.83843 16.3761C2.9779 16.6142 3.28396 16.6943 3.52222 16.555L5.2177 15.5639L5.68681 16.0992C6.71 17.2685 8.08759 18.071 9.60944 18.3843L10.303 18.5253L10.3053 20.4434ZM11.0254 16.0963C10.1037 16.0969 9.2026 15.8241 8.43599 15.3125C7.66938 14.8008 7.07172 14.0733 6.71862 13.222C6.36553 12.3707 6.27284 11.4337 6.4523 10.5297C6.63176 9.62568 7.0753 8.79518 7.72681 8.14327C8.37832 7.49135 9.20854 7.0473 10.1124 6.86729C11.0164 6.68727 11.9534 6.77937 12.8049 7.13195C13.6565 7.48452 14.3843 8.08172 14.8964 8.84802C15.4085 9.61431 15.6819 10.5153 15.6819 11.4369C15.6811 12.6724 15.19 13.8571 14.3163 14.7308C13.4427 15.6044 12.258 16.0956 11.0225 16.0963H11.0254ZM11.0254 8.50719C10.4451 8.50662 9.87773 8.6782 9.39503 9.00023C8.91232 9.32225 8.53599 9.78023 8.31367 10.3162C8.09135 10.8522 8.03303 11.4421 8.1461 12.0112C8.25916 12.5804 8.53852 13.1032 8.94883 13.5135C9.35914 13.9238 9.88195 14.2032 10.4511 14.3162C11.0202 14.4293 11.6101 14.371 12.1461 14.1486C12.6821 13.9263 13.1401 13.55 13.4621 13.0673C13.7841 12.5846 13.9557 12.0172 13.9551 11.4369C13.9536 10.6599 13.6441 9.91514 13.0943 9.36596C12.5446 8.81677 11.7996 8.50795 11.0225 8.50719H11.0254Z"></path>
    </symbol>
    <symbol xmlns="http://www.w3.org/2000/svg" viewBox="0 0 24 21" id="b-nav-comment">
        <path fill-rule="evenodd" clip-rule="evenodd"
              d="M0.25 3.20885C0.25 1.4367 1.6867 0 3.45885 0H20.5415C22.3135 0 23.7503 1.4366 23.75 3.20885C23.75 3.20891 23.75 3.20879 23.75 3.20885V14.252C23.75 16.0242 22.3133 17.4609 20.5411 17.4609H19.5782L18.2222 19.1481L17.2798 20.3207C17.2798 20.3207 17.2798 20.3206 17.2798 20.3207C16.6516 21.1024 15.4612 21.1024 14.833 20.3207C14.833 20.3207 14.833 20.3207 14.833 20.3207L13.8906 19.1482L12.5345 17.4609H3.45885C1.6867 17.4609 0.25 16.0242 0.25 14.252V3.20885ZM3.45885 1.5C2.51512 1.5 1.75 2.26512 1.75 3.20885V14.252C1.75 15.1958 2.51512 15.9609 3.45885 15.9609H13.2534L16.0021 19.381C16.0299 19.4156 16.0828 19.4156 16.1106 19.381L18.8593 15.9609H20.5411C21.4849 15.9609 22.25 15.1958 22.25 14.252V3.20885C22.2502 2.2653 21.4852 1.5 20.5415 1.5H3.45885Z"></path>
    </symbol>
    <symbol xmlns="http://www.w3.org/2000/svg" viewBox="0 0 49 49" id="user">
        <circle cx="24.2583" cy="24.2583" r="13" fill="url(#paint0_linear_27_82)"></circle>
        <path fill-rule="evenodd" clip-rule="evenodd"
              d="M19.7382 10.1837C26.9578 8.24924 34.3784 12.5336 36.3129 19.7531C37.3059 23.4591 36.6603 27.2181 34.8201 30.2608C33.356 27.2557 30.424 25.2651 27.1651 24.9477C27.5727 24.5405 27.9341 24.0738 28.2359 23.5511C30.09 20.3396 28.9897 16.233 25.7781 14.3788C22.5666 12.5246 18.46 13.625 16.6058 16.8365C14.7517 20.0481 15.852 24.1546 19.0635 26.0088C19.5861 26.3105 20.1323 26.534 20.6887 26.6829C17.6372 28.8642 16.0552 32.7327 16.933 36.5731L17.0184 36.9465L17.3709 37.0963C20.3512 38.3625 23.7621 38.6797 27.1317 37.7768C35.1515 35.6279 39.9107 27.3847 37.7618 19.3649C35.6129 11.3451 27.3697 6.58594 19.35 8.73483C11.3302 10.8837 6.57097 19.1269 8.71986 27.1467C9.39692 29.6735 10.6802 31.8787 12.3716 33.6452C12.6581 33.9444 13.1329 33.9547 13.432 33.6682C13.7312 33.3817 13.7415 32.907 13.455 32.6078C11.9337 31.019 10.7789 29.0355 10.1688 26.7585C8.23427 19.5389 12.5186 12.1182 19.7382 10.1837ZM23.7873 25.2262C23.7815 25.2277 23.7758 25.2293 23.77 25.2308C23.7645 25.2323 23.7589 25.2338 23.7534 25.2353C22.4689 25.5748 21.0551 25.4266 19.8135 24.7098C17.3194 23.2698 16.4649 20.0806 17.9049 17.5865C19.3448 15.0924 22.534 14.2379 25.0281 15.6778C27.5222 17.1178 28.3768 20.307 26.9368 22.8011C26.22 24.0427 25.0696 24.878 23.7873 25.2262ZM24.1412 26.6843C20.0823 27.7812 17.5893 31.7972 18.3187 35.8631C20.9141 36.8789 23.844 37.1048 26.7435 36.3279C29.6421 35.5512 32.0676 33.8902 33.8074 31.7128C32.4059 27.8272 28.2391 25.5959 24.1758 26.675C24.1643 26.6781 24.1527 26.6812 24.1412 26.6843Z"></path>
        <defs>
            <linearGradient id="paint0_linear_27_82" x1="24.2583" y1="11.2583" x2="24.2583" y2="37.2583"
                            gradientUnits="userSpaceOnUse">
                <stop stop-color="#FFE600"></stop>
                <stop offset="1" stop-color="#FFB800"></stop>
            </linearGradient>
        </defs>
    </symbol>
    <symbol xmlns="http://www.w3.org/2000/svg" viewBox="0 0 18 15" id="p-action-share">
        <path fill-rule="evenodd" clip-rule="evenodd"
              d="M10.3874 0.103861C10.1686 -0.0646125 9.8547 -0.0238183 9.68623 0.194977C9.51775 0.413772 9.55855 0.727715 9.77734 0.896189L15.9306 5.6342H10.166C7.54027 5.6342 5.35379 6.1742 3.63671 7.44667C1.9168 8.72123 0.731616 10.6832 0.0165855 13.4004C-0.0536911 13.6674 0.105825 13.9409 0.372876 14.0111C0.639926 14.0814 0.913383 13.9219 0.98366 13.6548C1.65987 11.0853 2.74713 9.35056 4.2321 8.2501C5.7199 7.14755 7.67074 6.6342 10.166 6.6342H15.9306L9.77735 11.3721C9.55855 11.5406 9.51775 11.8545 9.68623 12.0733C9.8547 12.2921 10.1686 12.3329 10.3874 12.1645L17.7045 6.53036C17.8067 6.45168 17.8737 6.33726 17.8934 6.21177C17.8974 6.1863 17.8995 6.16037 17.8995 6.1342C17.8995 6.10802 17.8974 6.08209 17.8934 6.05662C17.8824 5.98566 17.8564 5.91963 17.8188 5.86186C17.7883 5.81497 17.7499 5.77298 17.7045 5.73803L10.3874 0.103861Z"></path>
    </symbol>
    <symbol xmlns="http://www.w3.org/2000/svg" viewBox="0 0 8 5" id="arrow">
        <path d="M0.708524 1.70852C0.0785589 1.07856 0.524727 0.00141764 1.41563 0.00141764L6.89482 0.00141777C7.78573 0.00141777 8.23189 1.07856 7.60193 1.70852L4.86233 4.44812C4.47181 4.83864 3.83864 4.83864 3.44812 4.44812L0.708524 1.70852Z"></path>
    </symbol>
    <symbol xmlns="http://www.w3.org/2000/svg" viewBox="0 0 27 24" id="review-grade-bg">
        <path d="M17.7278 24H5.12595C2.29938 24 0 21.6337 0 18.7248V5.27358C0 2.36631 2.29938 0 5.12595 0L17.7278 0C19.6337 0 21.3705 1.07718 22.2605 2.81236L25.7111 9.538C26.5011 11.0802 26.5011 12.9214 25.7111 14.462L22.2605 21.1876C21.3721 22.9228 19.6353 24 17.7278 24Z"></path>
    </symbol>
    <symbol xmlns="http://www.w3.org/2000/svg" viewBox="0 0 15 17" id="scroll-top">
        <path fill-rule="evenodd" clip-rule="evenodd"
              d="M0.292893 6.65686L6.65685 0.292893C7.04738 -0.0976331 7.68054 -0.097633 8.07107 0.292893L14.435 6.65685C14.8256 7.04738 14.8256 7.68054 14.435 8.07107C14.0445 8.46159 13.4113 8.46159 13.0208 8.07107L8.36396 3.41421L8.36396 16C8.36396 16.5523 7.91625 17 7.36396 17C6.81168 17 6.36396 16.5523 6.36396 16L6.36396 3.41421L1.70711 8.07107C1.31658 8.46159 0.683418 8.46159 0.292894 8.07107C-0.0976306 7.68055 -0.0976306 7.04738 0.292893 6.65686Z"></path>
    </symbol>
    <symbol xmlns="http://www.w3.org/2000/svg" viewBox="0 0 18 18" id="search">
        <path d="M18 17.0295L12.7354 11.7649C13.911 10.3399 14.493 8.51712 14.3607 6.67455C14.2284 4.83197 13.3918 3.11103 12.0247 1.86868C10.6575 0.626332 8.86457 -0.0420901 7.01777 0.00205534C5.17098 0.0462008 3.41204 0.799526 2.10578 2.10578C0.799526 3.41204 0.0462008 5.17098 0.00205534 7.01777C-0.0420901 8.86457 0.626332 10.6575 1.86868 12.0247C3.11103 13.3918 4.83197 14.2284 6.67455 14.3607C8.51712 14.493 10.3399 13.911 11.7649 12.7354L17.0295 18L18 17.0295ZM3.05547 11.3071C2.23949 10.492 1.6836 9.45326 1.45813 8.32219C1.23265 7.19111 1.34773 6.01857 1.78879 4.95291C2.22985 3.88725 2.97709 2.97636 3.93596 2.33547C4.89483 1.69458 6.02225 1.35249 7.17558 1.35249C8.32891 1.35249 9.45632 1.69458 10.4152 2.33547C11.3741 2.97636 12.1213 3.88725 12.5624 4.95291C13.0034 6.01857 13.1185 7.19111 12.893 8.32219C12.6676 9.45326 12.1117 10.492 11.2957 11.3071C10.2016 12.3979 8.71952 13.01 7.17463 13.0092C5.62974 13.0083 4.1483 12.3945 3.05547 11.3025V11.3071Z"></path>
    </symbol>
    <symbol xmlns="http://www.w3.org/2000/svg" viewBox="0 0 12 12" id="star-old">
        <path d="M5.70634 0L7.46969 3.57295L11.4127 4.1459L8.55951 6.92705L9.23305 10.8541L5.70634 9L2.17963 10.8541L2.85317 6.92705L0 4.1459L3.94298 3.57295L5.70634 0Z"></path>
    </symbol>
    <symbol viewBox="0 0 84 84" xmlns="http://www.w3.org/2000/svg" id="star">
        <path d="M42 1.8877L54.6871 28.296L83.0562 32.5308L62.5281 53.0868L67.3741 82.1124L42 68.4084L16.6259 82.1124L21.4719 53.0868L0.943848 32.5308L29.313 28.296L42 1.8877Z"/>
    </symbol>
    <symbol xmlns="http://www.w3.org/2000/svg" viewBox="0 0 35 35" id="top">
        <path d="M34.21 12.893C34.56 14.2 32.826 15.764 32.826 17.056C32.827 18.393 34.551 19.957 34.212 21.219C33.868 22.498 31.585 22.989 30.927 24.129C30.269 25.269 30.986 27.491 30.05 28.428C29.127 29.352 26.91 28.642 25.752 29.309C24.633 29.954 24.146 32.238 22.839 32.589C21.532 32.939 19.968 31.205 18.676 31.205C17.339 31.206 15.775 32.93 14.513 32.591C13.234 32.247 12.743 29.964 11.603 29.306C10.463 28.648 8.241 29.365 7.304 28.429C6.38 27.506 7.09 25.289 6.423 24.131C5.778 23.012 3.494 22.525 3.143 21.218C2.793 19.911 4.527 18.347 4.527 17.055C4.526 15.718 2.802 14.154 3.141 12.892C3.485 11.613 5.768 11.122 6.426 9.98201C7.084 8.84201 6.367 6.62001 7.303 5.68301C8.226 4.75901 10.443 5.46901 11.601 4.80201C12.72 4.15701 13.207 1.87301 14.514 1.52301C15.821 1.17301 17.385 2.90701 18.677 2.90701C20.014 2.90601 21.578 1.18201 22.84 1.52101C24.119 1.86501 24.61 4.14801 25.75 4.80601C26.89 5.46401 29.112 4.74701 30.049 5.68301C30.973 6.60601 30.263 8.82301 30.93 9.98101C31.576 11.099 33.86 11.586 34.21 12.893Z"
              fill="url(#paint0_linear_27_94)"></path>
        <path d="M21.538 34.924C20.681 34.924 19.849 34.466 19.098 34.052C18.506 33.727 17.895 33.39 17.463 33.39C16.997 33.39 16.364 33.737 15.752 34.072C14.849 34.566 13.827 35.128 12.802 34.851C11.765 34.573 11.156 33.566 10.617 32.677C10.261 32.087 9.891 31.478 9.501 31.252C9.11 31.026 8.398 31.012 7.709 30.998C6.67 30.977 5.493 30.952 4.733 30.192C4.443 29.903 4.442 29.433 4.732 29.143C5.022 28.854 5.491 28.852 5.781 29.143C6.12 29.481 6.943 29.497 7.739 29.514C8.615 29.532 9.521 29.55 10.241 29.966C10.962 30.382 11.431 31.157 11.885 31.907C12.297 32.589 12.724 33.293 13.185 33.417C13.63 33.539 14.346 33.147 15.037 32.769C15.812 32.345 16.614 31.906 17.459 31.905H17.46C18.273 31.905 19.055 32.336 19.811 32.752C20.519 33.142 21.258 33.548 21.734 33.415C22.219 33.286 22.651 32.57 23.069 31.879C23.516 31.141 23.978 30.376 24.683 29.97C25.414 29.548 26.329 29.528 27.211 29.507C27.999 29.489 28.813 29.471 29.14 29.143C29.479 28.805 29.495 27.981 29.512 27.185C29.53 26.309 29.548 25.403 29.964 24.682C30.38 23.961 31.156 23.492 31.906 23.037C32.587 22.625 33.292 22.199 33.416 21.738C33.536 21.29 33.145 20.576 32.767 19.885C32.342 19.11 31.904 18.308 31.903 17.463C31.903 16.649 32.334 15.867 32.75 15.111C33.141 14.403 33.543 13.671 33.413 13.187C33.284 12.703 32.569 12.27 31.878 11.853C31.139 11.406 30.374 10.944 29.968 10.239C29.546 9.507 29.526 8.593 29.505 7.71C29.487 6.922 29.469 6.108 29.141 5.781C28.803 5.443 27.98 5.427 27.183 5.41C26.307 5.392 25.401 5.373 24.68 4.957C23.959 4.54 23.491 3.765 23.036 3.015C22.624 2.334 22.197 1.629 21.736 1.505C21.288 1.385 20.574 1.776 19.883 2.154C19.108 2.578 18.306 3.017 17.461 3.018H17.46C16.647 3.018 15.865 2.587 15.109 2.171C14.401 1.781 13.671 1.379 13.185 1.507C12.701 1.637 12.269 2.352 11.851 3.043C11.404 3.782 10.942 4.546 10.237 4.953C9.505 5.375 8.591 5.396 7.707 5.416C6.922 5.435 6.108 5.454 5.781 5.781C5.443 6.12 5.427 6.943 5.41 7.74C5.392 8.616 5.373 9.522 4.957 10.242C4.54 10.963 3.765 11.432 3.015 11.886C2.334 12.299 1.629 12.725 1.505 13.186C1.385 13.634 1.776 14.348 2.154 15.039C2.578 15.814 3.017 16.616 3.018 17.461C3.018 18.275 2.588 19.057 2.171 19.814C1.781 20.522 1.379 21.253 1.508 21.737C1.638 22.221 2.353 22.654 3.044 23.072C3.783 23.518 4.547 23.981 4.954 24.686C5.159 25.04 5.037 25.495 4.682 25.699C4.327 25.903 3.873 25.782 3.669 25.427C3.453 25.053 2.855 24.692 2.277 24.342C1.379 23.798 0.360003 23.183 0.0760029 22.122C-0.208997 21.061 0.366003 20.018 0.872003 19.099C1.198 18.507 1.536 17.895 1.535 17.463C1.535 16.997 1.188 16.364 0.853003 15.752C0.358003 14.849 -0.201997 13.825 0.0730029 12.802C0.352003 11.765 1.359 11.156 2.247 10.618C2.837 10.26 3.447 9.892 3.672 9.5C3.898 9.11 3.912 8.397 3.926 7.708C3.948 6.67 3.973 5.494 4.731 4.733C5.479 3.984 6.646 3.958 7.675 3.934C8.373 3.918 9.094 3.902 9.498 3.669C9.873 3.453 10.234 2.855 10.583 2.277C11.126 1.379 11.742 0.359996 12.803 0.0759959C13.861 -0.210004 14.906 0.364996 15.826 0.871996C16.418 1.198 17.03 1.535 17.461 1.535C17.927 1.535 18.56 1.188 19.171 0.852996C20.075 0.357996 21.103 -0.202004 22.121 0.0729959C23.158 0.351996 23.767 1.359 24.306 2.247C24.662 2.837 25.032 3.446 25.422 3.672C25.812 3.898 26.525 3.912 27.214 3.926C28.252 3.947 29.43 3.972 30.19 4.731C30.939 5.479 30.965 6.646 30.989 7.676C31.005 8.373 31.021 9.094 31.254 9.498C31.47 9.872 32.067 10.233 32.646 10.582C33.545 11.125 34.564 11.741 34.848 12.803C35.132 13.863 34.558 14.906 34.051 15.826C33.725 16.418 33.388 17.03 33.389 17.462C33.389 17.928 33.736 18.561 34.071 19.172C34.565 20.075 35.126 21.1 34.85 22.122C34.572 23.159 33.565 23.768 32.676 24.306C32.086 24.662 31.477 25.032 31.251 25.423C31.025 25.814 31.011 26.526 30.997 27.214C30.976 28.253 30.951 29.43 30.192 30.191C29.444 30.94 28.276 30.966 27.247 30.99C26.55 31.006 25.829 31.022 25.425 31.255C25.051 31.471 24.69 32.068 24.34 32.647C23.797 33.546 23.181 34.565 22.119 34.849C21.926 34.901 21.731 34.924 21.538 34.924Z"></path>
        <path d="M12.0524 23.9579L10.3543 24.4129L8.58711 17.8177L6.41245 18.4004L6.03378 16.9872L12.0813 15.3668L12.46 16.78L10.2852 17.3627L12.0524 23.9579Z"></path>
        <path d="M21.4284 17.142C21.7836 18.4677 21.728 19.5746 21.2614 20.4629C20.7949 21.3512 19.9481 21.9598 18.7211 22.2885C17.4942 22.6173 16.4564 22.5137 15.6083 21.9776C14.7602 21.4417 14.1575 20.5074 13.8004 19.1743C13.4432 17.8414 13.5 16.7352 13.9708 15.8554C14.4416 14.9758 15.2923 14.3711 16.5231 14.0413C17.7537 13.7116 18.7899 13.8136 19.6316 14.3474C20.4732 14.8813 21.0722 15.8128 21.4284 17.142ZM15.5836 18.7082C15.8233 19.6029 16.1737 20.2312 16.6346 20.593C17.0956 20.9548 17.6638 21.0452 18.3394 20.8642C19.6943 20.5011 20.1305 19.4195 19.648 17.6191C19.1647 15.8151 18.2492 15.0936 16.9018 15.4546C16.2261 15.6357 15.7776 15.9995 15.5561 16.5461C15.3346 17.0928 15.3439 17.8136 15.5836 18.7082Z"></path>
        <path d="M30.0531 19.1346L28.3605 19.5882L26.5933 12.993L23.6463 13.7826L25.4135 20.3778L23.7153 20.8329L21.5694 12.8243L27.9072 11.1261L30.0531 19.1346Z"></path>
        <defs>
            <linearGradient id="paint0_linear_27_94" x1="14.5153" y1="1.52221" x2="22.8394" y2="32.5881"
                            gradientUnits="userSpaceOnUse">
                <stop stop-color="#FFE600"></stop>
                <stop offset="1" stop-color="#FFB800"></stop>
            </linearGradient>
        </defs>
    </symbol>
    <symbol xmlns="http://www.w3.org/2000/svg" viewBox="0 0 25 19" id="p-action-favorite">
        <path fill-rule="evenodd" clip-rule="evenodd"
              d="M9 4.5C9 6.98528 6.98528 9 4.5 9C2.01472 9 0 6.98528 0 4.5C0 2.01472 2.01472 0 4.5 0C6.98528 0 9 2.01472 9 4.5ZM4.5 2C4.22386 2 4 2.22386 4 2.5V4L2.5 4C2.22386 4 2 4.22386 2 4.5C2 4.77614 2.22386 5 2.5 5H4V6.5C4 6.77614 4.22386 7 4.5 7C4.77614 7 5 6.77614 5 6.5V5H6.5C6.77614 5 7 4.77614 7 4.5C7 4.22386 6.77614 4 6.5 4H5V2.5C5 2.22386 4.77614 2 4.5 2ZM5.83545 9.83675C6.1631 9.75502 6.47913 9.64391 6.78056 9.50637C8.25519 14.2866 15 17 15 17L14.6268 17.9277L14.6231 17.9263L14.6166 17.9236L14.5948 17.9146C14.5765 17.9071 14.5507 17.8963 14.5179 17.8824C14.4523 17.8545 14.3585 17.8139 14.2405 17.7607C14.0047 17.6544 13.6712 17.4976 13.2715 17.2918C12.4743 16.8815 11.4022 16.2706 10.3119 15.4701C8.563 14.1859 6.60604 12.2945 5.83545 9.83675ZM15 17C15 17 23.0943 13.7439 23.4872 8.08144C23.6756 5.36599 21.7696 2.99997 18.6763 2.99997C17.1773 2.99997 16.1929 3.54084 15.6233 4.14706C15.1935 4.60454 15 5.09923 15 5.42678C15 5.09923 14.8065 4.60454 14.3766 4.14706C13.8071 3.54084 12.8226 2.99997 11.3237 2.99997C10.7945 2.99997 10.3 3.06922 9.84488 3.19762C9.76509 2.86902 9.65578 2.55196 9.51993 2.24941C10.0753 2.08755 10.6787 1.99997 11.3237 1.99997C12.9774 1.99997 14.2148 2.5857 15 3.35224C15.7851 2.5857 17.0225 1.99997 18.6763 1.99997C22.3819 1.99997 24.711 4.89026 24.4848 8.15066C24.2564 11.4418 21.818 13.9064 19.6881 15.4702C18.5978 16.2707 17.5257 16.8815 16.7285 17.2919C16.3288 17.4976 15.9953 17.6544 15.7594 17.7607C15.6414 17.8139 15.5477 17.8545 15.482 17.8824C15.4492 17.8963 15.4234 17.9071 15.4051 17.9147L15.3833 17.9236L15.3768 17.9263L15.3746 17.9271C15.3743 17.9273 15.3732 17.9277 15 17ZM14.6268 17.9277L15 18.0779L15.3732 17.9277L15 17C14.6268 17.9277 14.6271 17.9278 14.6268 17.9277Z"></path>
    </symbol>
    <symbol xmlns="http://www.w3.org/2000/svg" viewBox="0 0 28 18" id="b-nav-catalog">
        <path fill-rule="evenodd" clip-rule="evenodd"
              d="M18.3009 1.5C15.5287 1.5 13.2813 3.74739 13.2813 6.51968C13.2813 9.29197 15.5287 11.5394 18.3009 11.5394C21.0732 11.5394 23.3206 9.29197 23.3206 6.51968C23.3206 3.74739 21.0732 1.5 18.3009 1.5ZM11.7813 6.51968C11.7813 2.91896 14.7002 0 18.3009 0C21.9017 0 24.8206 2.91896 24.8206 6.51968C24.8206 8.04979 24.2935 9.45679 23.411 10.569L27.7133 14.8713C28.0062 15.1642 28.0062 15.6391 27.7133 15.932C27.4204 16.2249 26.9455 16.2249 26.6526 15.932L22.3503 11.6297C21.2381 12.5122 19.8311 13.0394 18.3009 13.0394C14.7002 13.0394 11.7813 10.1204 11.7813 6.51968ZM0.25 4.99214C0.25 4.57793 0.585786 4.24214 1 4.24214H8.39728C8.8115 4.24214 9.14728 4.57793 9.14728 4.99214C9.14728 5.40636 8.8115 5.74214 8.39728 5.74214H1C0.585786 5.74214 0.25 5.40636 0.25 4.99214ZM0.25 10.8004C0.25 10.3861 0.585786 10.0504 1 10.0504H9.50412C9.91833 10.0504 10.2541 10.3861 10.2541 10.8004C10.2541 11.2146 9.91833 11.5504 9.50412 11.5504H1C0.585786 11.5504 0.25 11.2146 0.25 10.8004ZM0.25 16.6091C0.25 16.1949 0.585786 15.8591 1 15.8591H16.1066C16.5208 15.8591 16.8566 16.1949 16.8566 16.6091C16.8566 17.0233 16.5208 17.3591 16.1066 17.3591H1C0.585786 17.3591 0.25 17.0233 0.25 16.6091Z"></path>
    </symbol>
    <symbol xmlns="http://www.w3.org/2000/svg" viewBox="0 0 26 19" id="p-action-compare">
        <path fill-rule="evenodd" clip-rule="evenodd"
              d="M9 4.5C9 6.98528 6.98528 9 4.5 9C2.01472 9 0 6.98528 0 4.5C0 2.01472 2.01472 0 4.5 0C6.98528 0 9 2.01472 9 4.5ZM4.5 2C4.22386 2 4 2.22386 4 2.5V4L2.5 4C2.22386 4 2 4.22386 2 4.5C2 4.77614 2.22386 5 2.5 5H4V6.5C4 6.77614 4.22386 7 4.5 7C4.77614 7 5 6.77614 5 6.5V5H6.5C6.77614 5 7 4.77614 7 4.5C7 4.22386 6.77614 4 6.5 4H5V2.5C5 2.22386 4.77614 2 4.5 2ZM10 4.5C10 4.84149 9.96887 5.17571 9.9093 5.49999H11.5C12.0523 5.49999 12.5 5.05227 12.5 4.49999C12.5 3.9477 12.0523 3.49999 11.5 3.49999H9.9093C9.96887 3.82427 10 4.1585 10 4.5ZM8.27496 8.49999C7.89804 8.85582 7.47089 9.15896 7.00519 9.39764C7.00177 9.43129 7 9.46544 7 9.49999C7 10.0523 7.44772 10.5 8 10.5H9.38461C9.93689 10.5 10.3846 10.0523 10.3846 9.49999C10.3846 8.9477 9.93689 8.49999 9.38461 8.49999H8.27496ZM22 1.49999H9.11053C8.87204 1.1342 8.59119 0.798546 8.27493 0.499987H22C24.2091 0.499987 26 2.29085 26 4.49999V14.5C26 16.7091 24.2091 18.5 22 18.5H8C5.79086 18.5 4 16.7091 4 14.5V9.97758C4.16467 9.99242 4.33145 10 4.5 10C4.66855 10 4.83533 9.99242 5 9.97758V14.5C5 16.1568 6.34314 17.5 8 17.5H22C23.6569 17.5 25 16.1568 25 14.5V4.49999C25 2.84313 23.6569 1.49999 22 1.49999ZM11.6538 14.5C11.6538 13.9477 11.2061 13.5 10.6538 13.5H8C7.44772 13.5 7 13.9477 7 14.5C7 15.0523 7.44772 15.5 8 15.5H10.6538C11.2061 15.5 11.6538 15.0523 11.6538 14.5ZM22 3.49999C22.5523 3.49999 23 3.9477 23 4.49999C23 5.05227 22.5523 5.49999 22 5.49999H17C16.4477 5.49999 16 5.05227 16 4.49999C16 3.9477 16.4477 3.49999 17 3.49999H22ZM19 8.49999C19.5523 8.49999 20 8.9477 20 9.49999C20 10.0523 19.5523 10.5 19 10.5H17C16.4477 10.5 16 10.0523 16 9.49999C16 8.9477 16.4477 8.49999 17 8.49999H19ZM19 14.5C19 13.9477 18.5523 13.5 18 13.5H17C16.4477 13.5 16 13.9477 16 14.5C16 15.0523 16.4477 15.5 17 15.5H18C18.5523 15.5 19 15.0523 19 14.5Z"></path>
    </symbol>
    <symbol xmlns="http://www.w3.org/2000/svg" viewBox="0 0 30 30" id="flag">
        <path fill-rule="evenodd" clip-rule="evenodd"
              d="M26 1H4C2.34315 1 1 2.34315 1 4V26C1 27.6569 2.34315 29 4 29H26C27.6569 29 29 27.6569 29 26V4C29 2.34315 27.6569 1 26 1ZM4 0C1.79086 0 0 1.79086 0 4V26C0 28.2091 1.79086 30 4 30H26C28.2091 30 30 28.2091 30 26V4C30 1.79086 28.2091 0 26 0H4Z"></path>
        <path fill-rule="evenodd" clip-rule="evenodd"
              d="M8.13881 7.48189C7.98432 7.41542 7.80676 7.43106 7.66628 7.52353C7.52576 7.61601 7.44118 7.77296 7.44118 7.94118V22.9412C7.44118 23.2173 7.66503 23.4412 7.94118 23.4412C8.21732 23.4412 8.44118 23.2173 8.44118 22.9412V8.67858C8.51943 8.70827 8.60333 8.73966 8.69241 8.77244C9.27315 8.9861 10.0772 9.25949 10.9681 9.49694C11.8569 9.73383 12.8447 9.93835 13.79 10.0085C14.7261 10.078 15.6713 10.02 16.4434 9.68757C17.6804 9.155 19.0536 9.03676 20.1386 9.05892C20.6774 9.06991 21.1362 9.11531 21.4591 9.15774C21.494 9.16232 21.5272 9.16687 21.5588 9.17133V15.7818C21.5393 15.7795 21.5193 15.7771 21.4989 15.7747C21.1059 15.729 20.561 15.6793 19.9541 15.6637C18.7708 15.6332 17.2365 15.7271 16.1666 16.3289C15.7963 16.5372 15.3008 16.6371 14.7261 16.6477C14.1565 16.6582 13.5475 16.5804 12.9801 16.4673C12.4146 16.3546 11.9035 16.2097 11.5332 16.0925C11.3485 16.034 11.1998 15.9828 11.0982 15.9466C11.0474 15.9284 11.0084 15.9141 10.9826 15.9044L10.954 15.8936L10.9475 15.8911L10.9462 15.8906C10.689 15.7905 10.3991 15.9177 10.2988 16.175C10.1986 16.4323 10.3259 16.7221 10.5832 16.8224C10.5943 16.8261 10.8743 16.0752 10.5832 16.8224L10.6323 16.841C10.6625 16.8524 10.7063 16.8685 10.7621 16.8884C10.8737 16.9282 11.0339 16.9834 11.2315 17.0459C11.6259 17.1707 12.1736 17.3263 12.7847 17.448C13.3937 17.5694 14.0788 17.6598 14.7445 17.6475C15.4051 17.6354 16.086 17.5216 16.6569 17.2005C17.4694 16.7434 18.7587 16.6333 19.9283 16.6634C20.4978 16.6781 21.0117 16.7248 21.3834 16.768C21.569 16.7896 21.7183 16.8102 21.8204 16.8253C21.8715 16.8328 21.9107 16.8389 21.9367 16.8431L21.9656 16.8478L21.9723 16.849L21.9737 16.8492C22.119 16.8743 22.2681 16.834 22.3809 16.739C22.4937 16.644 22.5588 16.504 22.5588 16.3565V8.74781C22.5588 8.51133 22.3931 8.30718 22.1617 8.25851L22.0588 8.74781C22.1617 8.25851 22.1617 8.25851 22.1617 8.25851L22.1601 8.25819L22.1574 8.25762L22.1486 8.25581L22.1174 8.24968C22.0908 8.24455 22.0526 8.23743 22.0037 8.22893C21.906 8.21194 21.7655 8.18941 21.5894 8.16626C21.2375 8.12002 20.7413 8.07101 20.159 8.05912C19.0018 8.0355 17.4684 8.15752 16.048 8.76908C15.4913 9.00872 14.7341 9.07585 13.864 9.01126C13.003 8.94735 12.0808 8.75858 11.2257 8.53067C10.3726 8.30331 9.59882 8.04039 9.0377 7.83394C8.75751 7.73085 8.53126 7.64219 8.37572 7.57958C8.29798 7.54828 8.23796 7.52352 8.19778 7.50676L8.15266 7.48779L8.14176 7.48316L8.13881 7.48189Z"></path>
    </symbol>
    <symbol xmlns="http://www.w3.org/2000/svg" viewBox="0 0 24 24" id="b-nav-question">
        <path fill-rule="evenodd" clip-rule="evenodd"
              d="M12 1.5C6.33908 1.5 1.75 6.08908 1.75 11.75C1.75 17.4109 6.33908 22 12 22C17.6609 22 22.25 17.4109 22.25 11.75C22.25 6.08908 17.6609 1.5 12 1.5ZM0.25 11.75C0.25 5.26065 5.51065 0 12 0C18.4893 0 23.75 5.26065 23.75 11.75C23.75 18.2393 18.4893 23.5 12 23.5C5.51065 23.5 0.25 18.2393 0.25 11.75Z"></path>
        <path d="M12.6016 14.3359H10.7344C10.7396 13.862 10.7786 13.4557 10.8516 13.1172C10.9297 12.7786 11.0573 12.474 11.2344 12.2031C11.4115 11.9271 11.651 11.6458 11.9531 11.3594C12.1927 11.1354 12.4062 10.9245 12.5938 10.7266C12.7865 10.5234 12.9375 10.3125 13.0469 10.0938C13.1562 9.86979 13.2109 9.61719 13.2109 9.33594C13.2109 9.01823 13.1589 8.7526 13.0547 8.53906C12.9557 8.32552 12.8073 8.16406 12.6094 8.05469C12.4167 7.9401 12.1745 7.88281 11.8828 7.88281C11.6432 7.88281 11.4167 7.93229 11.2031 8.03125C10.9896 8.13021 10.8177 8.28385 10.6875 8.49219C10.5573 8.69531 10.487 8.96094 10.4766 9.28906H8.40625C8.42188 8.60677 8.58333 8.03906 8.89062 7.58594C9.19792 7.1276 9.61198 6.78646 10.1328 6.5625C10.6536 6.33333 11.237 6.21875 11.8828 6.21875C12.5964 6.21875 13.2057 6.33854 13.7109 6.57812C14.2214 6.8125 14.6094 7.15625 14.875 7.60938C15.1458 8.0625 15.2812 8.60938 15.2812 9.25C15.2812 9.70833 15.1927 10.1198 15.0156 10.4844C14.8385 10.8438 14.6042 11.1797 14.3125 11.4922C14.0208 11.8047 13.7057 12.1198 13.3672 12.4375C13.0703 12.7031 12.8698 12.987 12.7656 13.2891C12.6615 13.5911 12.6068 13.9401 12.6016 14.3359ZM10.5391 16.7656C10.5391 16.4531 10.6432 16.1927 10.8516 15.9844C11.0651 15.776 11.3516 15.6719 11.7109 15.6719C12.0703 15.6719 12.3542 15.776 12.5625 15.9844C12.776 16.1927 12.8828 16.4531 12.8828 16.7656C12.8828 17.0677 12.776 17.3229 12.5625 17.5312C12.3542 17.7396 12.0703 17.8438 11.7109 17.8438C11.3516 17.8438 11.0651 17.7396 10.8516 17.5312C10.6432 17.3229 10.5391 17.0677 10.5391 16.7656Z"></path>
    </symbol>
    <symbol xmlns="http://www.w3.org/2000/svg" viewBox="0 0 16 17" id="place">
        <path d="M15.2105 0.913585L7.8265 16.1247L5.95723 10.1668L-0.000671953 8.29755L15.2105 0.913585Z"></path>
    </symbol>
    <symbol xmlns="http://www.w3.org/2000/svg" viewBox="0 0 24 20" id="favorite">
        <path d="M0 6.69458C0 12.9559 6.375 18.4347 12 20C17.625 18.4347 24 12.9559 24 6.69458C24 3.02048 21.8741 0.44768 18.375 0.0420155C14.7806 -0.374731 12 2.38992 12 4.73801C12 2.38992 9.21936 -0.374731 5.625 0.0420155C2.12585 0.44768 0 3.02048 0 6.69458Z"
        ></path>
    </symbol>
    <symbol xmlns="http://www.w3.org/2000/svg" viewBox="0 0 18 20" id="compare">
        <path fill-rule="evenodd" clip-rule="evenodd"
              d="M6.5 0C5.67157 0 5 0.671573 5 1.5V18.5C5 19.3284 5.67157 20 6.5 20C7.32843 20 8 19.3284 8 18.5V1.5C8 0.671573 7.32843 0 6.5 0ZM1.5 4.21053C0.671573 4.21053 0 4.8821 0 5.71053V18.5C0 19.3284 0.671573 20 1.5 20C2.32843 20 3 19.3284 3 18.5V5.71053C3 4.8821 2.32843 4.21053 1.5 4.21053ZM10 12.0263C10 11.1979 10.6716 10.5263 11.5 10.5263C12.3284 10.5263 13 11.1979 13 12.0263V18.5C13 19.3284 12.3284 20 11.5 20C10.6716 20 10 19.3284 10 18.5V12.0263ZM16.5 7.36842C15.6716 7.36842 15 8.03999 15 8.86842V18.5C15 19.3284 15.6716 20 16.5 20C17.3284 20 18 19.3284 18 18.5V8.86842C18 8.03999 17.3284 7.36842 16.5 7.36842Z"
        ></path>
    </symbol>
    <symbol fill="none" xmlns="http://www.w3.org/2000/svg" viewBox="0 0 27 30" id="phone-mg">
        <path fill-rule="evenodd" clip-rule="evenodd"
              d="M0 2.27192C0 1.01717 1.01717 0 2.27192 0H14.3888C15.6436 0 16.6607 1.01717 16.6607 2.27192V3.02954H15.1461V2.27192C15.1461 1.85367 14.8071 1.51461 14.3888 1.51461H2.27192C1.85367 1.51461 1.51461 1.85367 1.51461 2.27192V27.263C1.51461 27.6813 1.85367 28.0203 2.27192 28.0203H14.3888C14.8071 28.0203 15.1461 27.6813 15.1461 27.263V21.9622H16.6607V27.263C16.6607 28.5178 15.6436 29.5349 14.3888 29.5349H2.27192C1.01717 29.5349 0 28.5178 0 27.263V2.27192ZM19.9433 6.64812C23.016 9.72077 23.1865 14.5966 20.455 17.8694L26.1597 23.5741L25.0887 24.6451L19.384 18.9404C16.1112 21.6722 11.2352 21.5018 8.16243 18.429C4.90922 15.1758 4.90922 9.90133 8.16243 6.64812C11.4156 3.39491 16.6901 3.39491 19.9433 6.64812ZM18.8725 17.358C21.5342 14.6963 21.5342 10.3808 18.8725 7.71911C16.2107 5.05739 11.8952 5.05739 9.23353 7.71911C6.57181 10.3808 6.57181 14.6963 9.23353 17.358C11.8952 20.0198 16.2107 20.0198 18.8725 17.358Z"
        ></path>
    </symbol>
    <symbol fill="none" xmlns="http://www.w3.org/2000/svg" viewBox="0 0 44 30" id="phone-compare">
        <path fill-rule="evenodd" clip-rule="evenodd"
              d="M0 2.27192C0 1.01717 1.01717 0 2.27192 0H14.3888C15.6436 0 16.6607 1.01717 16.6607 2.27192V2.27197H16.6611V22.7192H16.6607V27.263C16.6607 28.5178 15.6436 29.5349 14.3888 29.5349H2.27192C1.01717 29.5349 0 28.5178 0 27.263V2.27192ZM15.1465 21.9622V3.02954H15.1461V2.27192C15.1461 1.85367 14.8071 1.51461 14.3888 1.51461H2.27192C1.85367 1.51461 1.51461 1.85367 1.51461 2.27192V27.263C1.51461 27.6813 1.85367 28.0203 2.27192 28.0203H14.3888C14.8071 28.0203 15.1461 27.6813 15.1461 27.263V21.9622H15.1465ZM27.2632 2.27216C27.2632 1.01742 28.2804 0.000244141 29.5351 0.000244141H41.652C42.9067 0.000244141 43.9239 1.01742 43.9239 2.27216V3.02954H43.9238V21.9622H43.9239V27.2633C43.9239 28.518 42.9067 29.5352 41.652 29.5352H29.5351C28.2804 29.5352 27.2632 28.518 27.2632 27.2633V2.27216ZM42.4093 22.7192H42.4092V2.27197H42.4093C42.4092 1.85381 42.0702 1.51486 41.652 1.51486H29.5351C29.1169 1.51486 28.7778 1.85391 28.7778 2.27216V27.2633C28.7778 27.6815 29.1169 28.0206 29.5351 28.0206H41.652C42.0702 28.0206 42.4093 27.6815 42.4093 27.2633V22.7192ZM25.7484 9.84521H20.7499L22.8515 7.74365L21.9238 6.81592L18.1753 10.5644L21.9238 14.3129L22.8515 13.3851L20.8262 11.3598H25.7484V9.84521ZM18.1755 18.9329H23.1741L21.0726 16.8313L22.0006 15.9033L25.749 19.6518L22.0006 23.4003L21.0726 22.4723L23.0974 20.4475H18.1755V18.9329ZM35.5937 3.78662C35.1755 3.78662 34.8364 4.12568 34.8364 4.54393V8.33046C34.8364 8.7487 35.1755 9.08776 35.5937 9.08776C36.012 9.08776 36.351 8.74871 36.351 8.33046V4.54393C36.351 4.12568 36.012 3.78662 35.5937 3.78662Z"
        ></path>
    </symbol>
    <symbol fill="none" xmlns="http://www.w3.org/2000/svg" viewBox="0 0 44 30" id="phone-top">
        <path fill-rule="evenodd" clip-rule="evenodd"
              d="M13.6318 2.6797C13.6318 1.14949 14.9477 0 16.4545 0H27.4699C28.9767 0 30.2926 1.14949 30.2926 2.6797V23.826C30.2926 25.3562 28.9767 26.5057 27.4699 26.5057H16.4545C14.9477 26.5057 13.6318 25.3562 13.6318 23.826V2.6797ZM16.4545 1.51461C15.68 1.51461 15.1464 2.08649 15.1464 2.6797V23.826C15.1464 24.4192 15.68 24.9911 16.4545 24.9911H27.4699C28.2444 24.9911 28.778 24.4192 28.778 23.826V2.6797C28.778 2.08649 28.2444 1.51461 27.4699 1.51461H16.4545ZM0 9.2041C0 7.97346 0.903064 6.81567 2.20307 6.81567H9.91382C11.2138 6.81567 12.1169 7.97346 12.1169 9.2041V27.1464C12.1169 28.3771 11.2138 29.5348 9.91382 29.5348H2.20307C0.903066 29.5348 0 28.3771 0 27.1464V9.2041ZM2.20307 8.33029C1.90613 8.33029 1.51461 8.63305 1.51461 9.2041V27.1464C1.51461 27.7175 1.90613 28.0202 2.20307 28.0202H9.91382C10.2108 28.0202 10.6023 27.7175 10.6023 27.1464V9.2041C10.6023 8.63305 10.2108 8.33029 9.91382 8.33029H2.20307ZM34.0097 6.81567C32.7097 6.81567 31.8066 7.97346 31.8066 9.2041V27.1464C31.8066 28.3771 32.7097 29.5348 34.0097 29.5348H41.7205C43.0205 29.5348 43.9235 28.3771 43.9235 27.1464V9.2041C43.9235 7.97346 43.0205 6.81567 41.7205 6.81567H34.0097ZM33.3213 9.2041C33.3213 8.63305 33.7128 8.33029 34.0097 8.33029H41.7205C42.0174 8.33029 42.4089 8.63305 42.4089 9.2041V27.1464C42.4089 27.7175 42.0174 28.0202 41.7205 28.0202H34.0097C33.7128 28.0202 33.3213 27.7175 33.3213 27.1464V9.2041ZM21.2051 4.54368C21.2051 4.12543 21.5441 3.78638 21.9624 3.78638C22.3806 3.78638 22.7197 4.12543 22.7197 4.54368V8.33021C22.7197 8.74846 22.3806 9.08752 21.9624 9.08752C21.5441 9.08752 21.2051 8.74846 21.2051 8.33021V4.54368ZM3.7866 9.84497C3.36835 9.84497 3.0293 10.184 3.0293 10.6023C3.0293 11.0205 3.36835 11.3596 3.7866 11.3596C4.20485 11.3596 4.54391 11.0205 4.54391 10.6023C4.54391 10.184 4.20485 9.84497 3.7866 9.84497ZM36.3516 11.3596C36.3516 10.5231 37.0297 9.84497 37.8662 9.84497C38.7027 9.84497 39.3808 10.5231 39.3808 11.3596C39.3808 12.1961 38.7027 12.8742 37.8662 12.8742C37.0297 12.8742 36.3516 12.1961 36.3516 11.3596ZM3.7866 12.1167C3.36835 12.1167 3.0293 12.4558 3.0293 12.874C3.0293 13.2923 3.36835 13.6313 3.7866 13.6313C4.20485 13.6313 4.54391 13.2923 4.54391 12.874C4.54391 12.4558 4.20485 12.1167 3.7866 12.1167Z"
        ></path>
    </symbol>
    <symbol xmlns="http://www.w3.org/2000/svg" viewBox="0 0 26 26" id="like">
        <path fill-rule="evenodd" clip-rule="evenodd"
              d="M14 3.00528C14 1.99695 12.6768 1.62244 12.1483 2.48118L7.85166 9.46329C7.66966 9.75904 7.34726 9.9392 7 9.9392H2V24.9392C2 25.4915 1.55228 25.9392 1 25.9392C0.447715 25.9392 0 25.4915 0 24.9392V8.9392C0 8.38691 0.447715 7.9392 1 7.9392H6.44121L10.445 1.43299C12.0304 -1.14326 16 -0.0196848 16 3.00528V7.9392H21.2056C23.5622 7.9392 25.4081 9.96623 25.1881 12.3126L24.3356 21.4059C24.0948 23.9752 21.9381 25.9392 19.3575 25.9392H9.5C7.29086 25.9392 5.5 24.1483 5.5 21.9392V14.9392C5.5 14.3869 5.94772 13.9392 6.5 13.9392C7.05228 13.9392 7.5 14.3869 7.5 14.9392V21.9392C7.5 23.0438 8.39543 23.9392 9.5 23.9392H19.3575C20.9058 23.9392 22.1998 22.7608 22.3444 21.2192L23.1969 12.1259C23.3068 10.9527 22.3839 9.9392 21.2056 9.9392H15C14.4477 9.9392 14 9.49148 14 8.9392V3.00528Z"
        ></path>
    </symbol>
    <symbol xmlns="http://www.w3.org/2000/svg" viewBox="0 0 26 26" id="dislike">
        <path fill-rule="evenodd" clip-rule="evenodd"
              d="M11.207 22.9339C11.207 23.9423 12.5302 24.3168 13.0587 23.458L17.3554 16.4759C17.5374 16.1802 17.8598 16 18.207 16L23.207 16L23.207 1.00001C23.207 0.447729 23.6547 1.32157e-05 24.207 1.3264e-05C24.7593 1.33123e-05 25.207 0.447729 25.207 1.00001L25.207 17C25.207 17.5523 24.7593 18 24.207 18L18.7658 18L14.762 24.5062C13.1766 27.0825 9.20703 25.9589 9.20703 22.9339L9.20703 18L4.00144 18C1.64482 18 -0.201068 15.973 0.018901 13.6266L0.871401 4.53331C1.11228 1.96396 3.26896 1.14336e-05 5.84957 1.16592e-05L15.707 1.25209e-05C17.9162 1.27141e-05 19.707 1.79087 19.707 4.00001L19.707 11C19.707 11.5523 19.2593 12 18.707 12C18.1547 12 17.707 11.5523 17.707 11L17.707 4.00001C17.707 2.89544 16.8116 2.00001 15.707 2.00001L5.84957 2.00001C4.3012 2.00001 3.0072 3.17838 2.86267 4.71999L2.01017 13.8133C1.90018 14.9865 2.82313 16 4.00144 16L10.207 16C10.7593 16 11.207 16.4477 11.207 17L11.207 22.9339Z"
        ></path>
    </symbol>
    <symbol xmlns="http://www.w3.org/2000/svg" viewBox="0 0 51 30" id="vk">
        <path fill-rule="evenodd" clip-rule="evenodd"
              d="M49.3554 2.0314C49.7066 0.860435 49.3554 0 47.6842 0H42.1579C40.7528 0 40.105 0.743288 39.7536 1.56292C39.7536 1.56292 36.9433 8.413 32.9621 12.8626C31.6741 14.1506 31.0886 14.5604 30.386 14.5604C30.0347 14.5604 29.5262 14.1506 29.5262 12.9797V2.03141C29.5262 0.626243 29.1184 0 27.9474 0H19.2632C18.3851 0 17.857 0.652169 17.857 1.27025C17.857 2.60232 19.8475 2.90951 20.0526 6.6566V14.7947C20.0526 16.5789 19.7304 16.9024 19.0278 16.9024C17.1544 16.9024 12.5972 10.0218 9.8944 2.14845C9.36471 0.618158 8.83344 0 7.42107 0H1.89475C0.315806 0 0 0.743288 0 1.56292C0 3.02665 1.87354 10.2866 8.72353 19.8883C13.2902 26.4455 19.7242 30 25.579 30C29.0918 30 29.5263 29.2105 29.5263 27.8507V22.8947C29.5263 21.3158 29.8591 21.0007 30.9715 21.0007C31.7911 21.0007 33.1963 21.4105 36.475 24.5721C40.222 28.319 40.8397 30 42.9474 30H48.4737C50.0527 30 50.8421 29.2105 50.3867 27.6525C49.8883 26.0998 48.0993 23.8469 45.7255 21.1763C44.4374 19.6541 42.5054 18.0148 41.9198 17.195C41.1002 16.1413 41.3344 15.6728 41.9198 14.7361C41.9198 14.7361 48.6529 5.25144 49.3554 2.0314Z"></path>
    </symbol>
    <symbol xmlns="http://www.w3.org/2000/svg" viewBox="0 0 43 30" id="youtube">
        <path fill-rule="evenodd" clip-rule="evenodd"
              d="M38.0769 0.906593C39.9176 1.4011 41.3736 2.85714 41.8681 4.6978C42.7747 8.04945 42.8022 15 42.8022 15C42.8022 15 42.8022 21.978 41.8956 25.3022C41.4011 27.1429 39.9451 28.5989 38.1044 29.0934C34.7802 30 21.4011 30 21.4011 30C21.4011 30 8.02198 30 4.6978 29.0934C2.85714 28.5989 1.4011 27.1429 0.906593 25.3022C0 21.9506 0 15 0 15C0 15 0 8.04945 0.879121 4.72528C1.37363 2.88462 2.82967 1.42857 4.67033 0.934066C7.99451 0.0274725 21.3736 0 21.3736 0C21.3736 0 34.7528 0 38.0769 0.906593ZM28.2141 15L17.1152 21.4285V8.57139L28.2141 15Z"></path>
    </symbol>
    <symbol xmlns="http://www.w3.org/2000/svg" viewBox="0 0 36 30" id="telegram">
        <path d="M19.0484 23.5189L27.2677 29.5914C28.7804 30.426 29.8719 29.9938 30.2488 28.1871L35.6444 2.76103C36.1967 0.546291 34.8002 -0.458559 33.3529 0.198448L1.66988 12.4152C-0.492729 13.2828 -0.479847 14.4893 1.27573 15.0269L9.40633 17.5648L28.2295 5.68938C29.1181 5.15056 29.9338 5.44005 29.2645 6.03428L14.0123 19.7981L13.453 28.1827C14.2529 28.1827 14.6184 27.8269 15.0604 27.3967L19.0484 23.5189Z"></path>
    </symbol>
</svg>