<svg width="28" height="18" viewBox="0 0 28 18" fill="none" xmlns="http://www.w3.org/2000/svg">
<path fill-rule="evenodd" clip-rule="evenodd" d="M18.3009 1.5C15.5287 1.5 13.2813 3.74739 13.2813 6.51968C13.2813 9.29197 15.5287 11.5394 18.3009 11.5394C21.0732 11.5394 23.3206 9.29197 23.3206 6.51968C23.3206 3.74739 21.0732 1.5 18.3009 1.5ZM11.7813 6.51968C11.7813 2.91896 14.7002 0 18.3009 0C21.9017 0 24.8206 2.91896 24.8206 6.51968C24.8206 8.04979 24.2935 9.45679 23.411 10.569L27.7133 14.8713C28.0062 15.1642 28.0062 15.6391 27.7133 15.932C27.4204 16.2249 26.9455 16.2249 26.6526 15.932L22.3503 11.6297C21.2381 12.5122 19.8311 13.0394 18.3009 13.0394C14.7002 13.0394 11.7813 10.1204 11.7813 6.51968ZM0.25 4.99214C0.25 4.57793 0.585786 4.24214 1 4.24214H8.39728C8.8115 4.24214 9.14728 4.57793 9.14728 4.99214C9.14728 5.40636 8.8115 5.74214 8.39728 5.74214H1C0.585786 5.74214 0.25 5.40636 0.25 4.99214ZM0.25 10.8004C0.25 10.3861 0.585786 10.0504 1 10.0504H9.50412C9.91833 10.0504 10.2541 10.3861 10.2541 10.8004C10.2541 11.2146 9.91833 11.5504 9.50412 11.5504H1C0.585786 11.5504 0.25 11.2146 0.25 10.8004ZM0.25 16.6091C0.25 16.1949 0.585786 15.8591 1 15.8591H16.1066C16.5208 15.8591 16.8566 16.1949 16.8566 16.6091C16.8566 17.0233 16.5208 17.3591 16.1066 17.3591H1C0.585786 17.3591 0.25 17.0233 0.25 16.6091Z" fill="black"/>
</svg>
