<svg width="23" height="23" viewBox="0 0 23 23" fill="none" xmlns="http://www.w3.org/2000/svg">
<path d="M13.4695 20.6674C13.4707 21.7728 12.5749 22.6695 11.4695 22.6695H10.5791C9.47457 22.6695 8.57914 21.7741 8.57914 20.6695V19.9067C7.19384 19.5018 5.92833 18.7648 4.8925 17.7598L4.19937 18.1641C3.24652 18.7199 2.02355 18.3993 1.46595 17.4475L1.0107 16.6704C0.452467 15.7175 0.772237 14.4925 1.725 13.934L2.45488 13.5062C2.29045 12.8287 2.20736 12.1341 2.20738 11.4369C2.20468 10.6784 2.30144 9.92269 2.49517 9.18926L1.72313 8.73601C0.771214 8.17715 0.452048 6.95275 1.01002 6.00032L1.46432 5.22483C2.02256 4.27193 3.24749 3.95186 4.20053 4.50986L5.01625 4.98747C6.02647 4.04328 7.24669 3.35277 8.57626 2.97291V2C8.57626 0.895432 9.47169 0 10.5763 0H11.4688C12.5733 0 13.4688 0.89543 13.4688 2V2.96716C14.7983 3.34702 16.0185 4.03752 17.0288 4.98171L17.8457 4.50525C18.7985 3.94952 20.0214 4.27016 20.579 5.22192L21.034 5.99858C21.5923 6.9517 21.2723 8.177 20.3191 8.73529L19.5441 9.18926C19.9154 10.6024 19.9313 12.0854 19.5901 13.5062L20.32 13.934C21.2728 14.4925 21.5925 15.7175 21.0343 16.6704L20.5806 17.4448C20.0224 18.3977 18.7976 18.7178 17.8445 18.1598L17.1611 17.7598C16.1233 18.765 14.8558 19.502 13.4688 19.9067L13.4695 20.6674ZM10.3053 20.4434C10.3056 20.7193 10.5294 20.9428 10.8053 20.9428H11.2449C11.521 20.9428 11.7449 20.7189 11.7449 20.4428V18.5253L12.4356 18.3843C13.958 18.0704 15.3363 17.268 16.3611 16.0992L16.8302 15.5639L18.5234 16.5551C18.7614 16.6944 19.0673 16.6147 19.207 16.377L19.4319 15.9945C19.5718 15.7566 19.4925 15.4504 19.2547 15.3103L17.5554 14.3091L17.7742 13.6472C18.2594 12.1595 18.2412 10.5534 17.7223 9.07702L17.4691 8.40358L19.2527 7.36121C19.4914 7.22171 19.5716 6.91499 19.4317 6.67653L19.2069 6.29338C19.0673 6.05529 18.7611 5.97542 18.5229 6.11494L16.7237 7.16895L16.2546 6.6538C15.2442 5.54457 13.9064 4.78645 12.4356 4.48959L11.7449 4.35144V2.22676C11.7449 1.95062 11.521 1.72676 11.2449 1.72676H10.8059C10.5298 1.72676 10.3059 1.95062 10.3059 2.22676V4.35144L9.61232 4.48959C8.14235 4.78645 6.80546 5.54463 5.79617 6.6538L5.32419 7.16895L3.52495 6.11494C3.28678 5.97542 2.98061 6.05529 2.84095 6.29338L2.61604 6.67678C2.47622 6.91514 2.55628 7.22174 2.79479 7.36131L4.57592 8.40358L4.33993 9.07702C3.81724 10.5527 3.79902 12.1601 4.28813 13.6472L4.50397 14.3091L2.79405 15.3112C2.55585 15.4508 2.47587 15.757 2.6154 15.9952L2.83843 16.3761C2.9779 16.6142 3.28396 16.6943 3.52222 16.555L5.2177 15.5639L5.68681 16.0992C6.71 17.2685 8.08759 18.071 9.60944 18.3843L10.303 18.5253L10.3053 20.4434ZM11.0254 16.0963C10.1037 16.0969 9.2026 15.8241 8.43599 15.3125C7.66938 14.8008 7.07172 14.0733 6.71862 13.222C6.36553 12.3707 6.27284 11.4337 6.4523 10.5297C6.63176 9.62568 7.0753 8.79518 7.72681 8.14327C8.37832 7.49135 9.20854 7.0473 10.1124 6.86729C11.0164 6.68727 11.9534 6.77937 12.8049 7.13195C13.6565 7.48452 14.3843 8.08172 14.8964 8.84802C15.4085 9.61431 15.6819 10.5153 15.6819 11.4369C15.6811 12.6724 15.19 13.8571 14.3163 14.7308C13.4427 15.6044 12.258 16.0956 11.0225 16.0963H11.0254ZM11.0254 8.50719C10.4451 8.50662 9.87773 8.6782 9.39503 9.00023C8.91232 9.32225 8.53599 9.78023 8.31367 10.3162C8.09135 10.8522 8.03303 11.4421 8.1461 12.0112C8.25916 12.5804 8.53852 13.1032 8.94883 13.5135C9.35914 13.9238 9.88195 14.2032 10.4511 14.3162C11.0202 14.4293 11.6101 14.371 12.1461 14.1486C12.6821 13.9263 13.1401 13.55 13.4621 13.0673C13.7841 12.5846 13.9557 12.0172 13.9551 11.4369C13.9536 10.6599 13.6441 9.91514 13.0943 9.36596C12.5446 8.81677 11.7996 8.50795 11.0225 8.50719H11.0254Z" fill="black"/>
</svg>
