<svg width="25" height="25" viewBox="0 0 25 25" fill="none" xmlns="http://www.w3.org/2000/svg">
<path fill-rule="evenodd" clip-rule="evenodd" d="M15.7361 2.00011C15.176 1.99425 14.6377 2.2139 14.242 2.60959L2.60953 14.2421C1.7968 15.0548 1.7968 16.3726 2.60953 17.1854L7.81487 22.3902C8.62756 23.2032 9.94534 23.2034 10.758 22.3904L22.3907 10.7582C22.7863 10.3626 23.0061 9.82378 23.0002 9.26402L22.9452 4.11429C22.933 2.982 22.0183 2.06723 20.886 2.05506M20.886 2.05506L15.7361 2.00011ZM12.8278 1.19538C13.604 0.419174 14.6598 -0.0113334 15.7573 0.000226948L20.9074 0.0551787C23.1275 0.0789852 24.9213 1.87272 24.9451 4.09285L25 9.24281C25.0116 10.3398 24.5812 11.3962 23.8049 12.1725L12.1726 23.8043C10.5787 25.3988 7.99435 25.3988 6.40054 23.8043L1.19535 18.5996C-0.398427 17.0058 -0.398462 14.4216 1.19532 12.8279L12.8278 1.19538Z" fill="black"/>
<path fill-rule="evenodd" clip-rule="evenodd" d="M18.2437 5.67361C17.6456 5.67361 17.1607 6.15848 17.1607 6.75658C17.1607 7.35469 17.6456 7.83955 18.2437 7.83955C18.8418 7.83955 19.3266 7.35469 19.3266 6.75658C19.3266 6.15848 18.8418 5.67361 18.2437 5.67361ZM15.1607 6.75658C15.1607 5.05391 16.541 3.67361 18.2437 3.67361C19.9464 3.67361 21.3266 5.05391 21.3266 6.75658C21.3266 8.45926 19.9464 9.83955 18.2437 9.83955C16.541 9.83955 15.1607 8.45926 15.1607 6.75658Z" fill="black"/>
</svg>
