<svg width="24" height="24" viewBox="0 0 24 24" fill="none" xmlns="http://www.w3.org/2000/svg">
<path fill-rule="evenodd" clip-rule="evenodd" d="M12 1.5C6.33908 1.5 1.75 6.08908 1.75 11.75C1.75 17.4109 6.33908 22 12 22C17.6609 22 22.25 17.4109 22.25 11.75C22.25 6.08908 17.6609 1.5 12 1.5ZM0.25 11.75C0.25 5.26065 5.51065 0 12 0C18.4893 0 23.75 5.26065 23.75 11.75C23.75 18.2393 18.4893 23.5 12 23.5C5.51065 23.5 0.25 18.2393 0.25 11.75Z" fill="black"/>
<path d="M12.6016 14.3359H10.7344C10.7396 13.862 10.7786 13.4557 10.8516 13.1172C10.9297 12.7786 11.0573 12.474 11.2344 12.2031C11.4115 11.9271 11.651 11.6458 11.9531 11.3594C12.1927 11.1354 12.4062 10.9245 12.5938 10.7266C12.7865 10.5234 12.9375 10.3125 13.0469 10.0938C13.1562 9.86979 13.2109 9.61719 13.2109 9.33594C13.2109 9.01823 13.1589 8.7526 13.0547 8.53906C12.9557 8.32552 12.8073 8.16406 12.6094 8.05469C12.4167 7.9401 12.1745 7.88281 11.8828 7.88281C11.6432 7.88281 11.4167 7.93229 11.2031 8.03125C10.9896 8.13021 10.8177 8.28385 10.6875 8.49219C10.5573 8.69531 10.487 8.96094 10.4766 9.28906H8.40625C8.42188 8.60677 8.58333 8.03906 8.89062 7.58594C9.19792 7.1276 9.61198 6.78646 10.1328 6.5625C10.6536 6.33333 11.237 6.21875 11.8828 6.21875C12.5964 6.21875 13.2057 6.33854 13.7109 6.57812C14.2214 6.8125 14.6094 7.15625 14.875 7.60938C15.1458 8.0625 15.2812 8.60938 15.2812 9.25C15.2812 9.70833 15.1927 10.1198 15.0156 10.4844C14.8385 10.8438 14.6042 11.1797 14.3125 11.4922C14.0208 11.8047 13.7057 12.1198 13.3672 12.4375C13.0703 12.7031 12.8698 12.987 12.7656 13.2891C12.6615 13.5911 12.6068 13.9401 12.6016 14.3359ZM10.5391 16.7656C10.5391 16.4531 10.6432 16.1927 10.8516 15.9844C11.0651 15.776 11.3516 15.6719 11.7109 15.6719C12.0703 15.6719 12.3542 15.776 12.5625 15.9844C12.776 16.1927 12.8828 16.4531 12.8828 16.7656C12.8828 17.0677 12.776 17.3229 12.5625 17.5312C12.3542 17.7396 12.0703 17.8438 11.7109 17.8438C11.3516 17.8438 11.0651 17.7396 10.8516 17.5312C10.6432 17.3229 10.5391 17.0677 10.5391 16.7656Z" fill="black"/>
</svg>
