<svg width="24" height="21" viewBox="0 0 24 21" fill="none" xmlns="http://www.w3.org/2000/svg">
<path fill-rule="evenodd" clip-rule="evenodd" d="M0.25 3.20885C0.25 1.4367 1.6867 0 3.45885 0H20.5415C22.3135 0 23.7503 1.4366 23.75 3.20885C23.75 3.20891 23.75 3.20879 23.75 3.20885V14.252C23.75 16.0242 22.3133 17.4609 20.5411 17.4609H19.5782L18.2222 19.1481L17.2798 20.3207C17.2798 20.3207 17.2798 20.3206 17.2798 20.3207C16.6516 21.1024 15.4612 21.1024 14.833 20.3207C14.833 20.3207 14.833 20.3207 14.833 20.3207L13.8906 19.1482L12.5345 17.4609H3.45885C1.6867 17.4609 0.25 16.0242 0.25 14.252V3.20885ZM3.45885 1.5C2.51512 1.5 1.75 2.26512 1.75 3.20885V14.252C1.75 15.1958 2.51512 15.9609 3.45885 15.9609H13.2534L16.0021 19.381C16.0299 19.4156 16.0828 19.4156 16.1106 19.381L18.8593 15.9609H20.5411C21.4849 15.9609 22.25 15.1958 22.25 14.252V3.20885C22.2502 2.2653 21.4852 1.5 20.5415 1.5H3.45885Z" fill="black"/>
</svg>
