<svg width="30" height="30" viewBox="0 0 30 30" fill="none" xmlns="http://www.w3.org/2000/svg">
<path fill-rule="evenodd" clip-rule="evenodd" d="M26 1H4C2.34315 1 1 2.34315 1 4V26C1 27.6569 2.34315 29 4 29H26C27.6569 29 29 27.6569 29 26V4C29 2.34315 27.6569 1 26 1ZM4 0C1.79086 0 0 1.79086 0 4V26C0 28.2091 1.79086 30 4 30H26C28.2091 30 30 28.2091 30 26V4C30 1.79086 28.2091 0 26 0H4Z" fill="black"/>
<path fill-rule="evenodd" clip-rule="evenodd" d="M8.13881 7.48189C7.98432 7.41542 7.80676 7.43106 7.66628 7.52353C7.52576 7.61601 7.44118 7.77296 7.44118 7.94118V22.9412C7.44118 23.2173 7.66503 23.4412 7.94118 23.4412C8.21732 23.4412 8.44118 23.2173 8.44118 22.9412V8.67858C8.51943 8.70827 8.60333 8.73966 8.69241 8.77244C9.27315 8.9861 10.0772 9.25949 10.9681 9.49694C11.8569 9.73383 12.8447 9.93835 13.79 10.0085C14.7261 10.078 15.6713 10.02 16.4434 9.68757C17.6804 9.155 19.0536 9.03676 20.1386 9.05892C20.6774 9.06991 21.1362 9.11531 21.4591 9.15774C21.494 9.16232 21.5272 9.16687 21.5588 9.17133V15.7818C21.5393 15.7795 21.5193 15.7771 21.4989 15.7747C21.1059 15.729 20.561 15.6793 19.9541 15.6637C18.7708 15.6332 17.2365 15.7271 16.1666 16.3289C15.7963 16.5372 15.3008 16.6371 14.7261 16.6477C14.1565 16.6582 13.5475 16.5804 12.9801 16.4673C12.4146 16.3546 11.9035 16.2097 11.5332 16.0925C11.3485 16.034 11.1998 15.9828 11.0982 15.9466C11.0474 15.9284 11.0084 15.9141 10.9826 15.9044L10.954 15.8936L10.9475 15.8911L10.9462 15.8906C10.689 15.7905 10.3991 15.9177 10.2988 16.175C10.1986 16.4323 10.3259 16.7221 10.5832 16.8224C10.5943 16.8261 10.8743 16.0752 10.5832 16.8224L10.6323 16.841C10.6625 16.8524 10.7063 16.8685 10.7621 16.8884C10.8737 16.9282 11.0339 16.9834 11.2315 17.0459C11.6259 17.1707 12.1736 17.3263 12.7847 17.448C13.3937 17.5694 14.0788 17.6598 14.7445 17.6475C15.4051 17.6354 16.086 17.5216 16.6569 17.2005C17.4694 16.7434 18.7587 16.6333 19.9283 16.6634C20.4978 16.6781 21.0117 16.7248 21.3834 16.768C21.569 16.7896 21.7183 16.8102 21.8204 16.8253C21.8715 16.8328 21.9107 16.8389 21.9367 16.8431L21.9656 16.8478L21.9723 16.849L21.9737 16.8492C22.119 16.8743 22.2681 16.834 22.3809 16.739C22.4937 16.644 22.5588 16.504 22.5588 16.3565V8.74781C22.5588 8.51133 22.3931 8.30718 22.1617 8.25851L22.0588 8.74781C22.1617 8.25851 22.1617 8.25851 22.1617 8.25851L22.1601 8.25819L22.1574 8.25762L22.1486 8.25581L22.1174 8.24968C22.0908 8.24455 22.0526 8.23743 22.0037 8.22893C21.906 8.21194 21.7655 8.18941 21.5894 8.16626C21.2375 8.12002 20.7413 8.07101 20.159 8.05912C19.0018 8.0355 17.4684 8.15752 16.048 8.76908C15.4913 9.00872 14.7341 9.07585 13.864 9.01126C13.003 8.94735 12.0808 8.75858 11.2257 8.53067C10.3726 8.30331 9.59882 8.04039 9.0377 7.83394C8.75751 7.73085 8.53126 7.64219 8.37572 7.57958C8.29798 7.54828 8.23796 7.52352 8.19778 7.50676L8.15266 7.48779L8.14176 7.48316L8.13881 7.48189Z" fill="black"/>
</svg>
