<svg width="25" height="19" viewBox="0 0 25 19" fill="none" xmlns="http://www.w3.org/2000/svg">
<path fill-rule="evenodd" clip-rule="evenodd" d="M9 4.5C9 6.98528 6.98528 9 4.5 9C2.01472 9 0 6.98528 0 4.5C0 2.01472 2.01472 0 4.5 0C6.98528 0 9 2.01472 9 4.5ZM4.5 2C4.22386 2 4 2.22386 4 2.5V4L2.5 4C2.22386 4 2 4.22386 2 4.5C2 4.77614 2.22386 5 2.5 5H4V6.5C4 6.77614 4.22386 7 4.5 7C4.77614 7 5 6.77614 5 6.5V5H6.5C6.77614 5 7 4.77614 7 4.5C7 4.22386 6.77614 4 6.5 4H5V2.5C5 2.22386 4.77614 2 4.5 2ZM5.83545 9.83675C6.1631 9.75502 6.47913 9.64391 6.78056 9.50637C8.25519 14.2866 15 17 15 17L14.6268 17.9277L14.6231 17.9263L14.6166 17.9236L14.5948 17.9146C14.5765 17.9071 14.5507 17.8963 14.5179 17.8824C14.4523 17.8545 14.3585 17.8139 14.2405 17.7607C14.0047 17.6544 13.6712 17.4976 13.2715 17.2918C12.4743 16.8815 11.4022 16.2706 10.3119 15.4701C8.563 14.1859 6.60604 12.2945 5.83545 9.83675ZM15 17C15 17 23.0943 13.7439 23.4872 8.08144C23.6756 5.36599 21.7696 2.99997 18.6763 2.99997C17.1773 2.99997 16.1929 3.54084 15.6233 4.14706C15.1935 4.60454 15 5.09923 15 5.42678C15 5.09923 14.8065 4.60454 14.3766 4.14706C13.8071 3.54084 12.8226 2.99997 11.3237 2.99997C10.7945 2.99997 10.3 3.06922 9.84488 3.19762C9.76509 2.86902 9.65578 2.55196 9.51993 2.24941C10.0753 2.08755 10.6787 1.99997 11.3237 1.99997C12.9774 1.99997 14.2148 2.5857 15 3.35224C15.7851 2.5857 17.0225 1.99997 18.6763 1.99997C22.3819 1.99997 24.711 4.89026 24.4848 8.15066C24.2564 11.4418 21.818 13.9064 19.6881 15.4702C18.5978 16.2707 17.5257 16.8815 16.7285 17.2919C16.3288 17.4976 15.9953 17.6544 15.7594 17.7607C15.6414 17.8139 15.5477 17.8545 15.482 17.8824C15.4492 17.8963 15.4234 17.9071 15.4051 17.9147L15.3833 17.9236L15.3768 17.9263L15.3746 17.9271C15.3743 17.9273 15.3732 17.9277 15 17ZM14.6268 17.9277L15 18.0779L15.3732 17.9277L15 17C14.6268 17.9277 14.6271 17.9278 14.6268 17.9277Z" fill="black"/>
</svg>
