<svg width="26" height="19" viewBox="0 0 26 19" fill="none" xmlns="http://www.w3.org/2000/svg">
<path fill-rule="evenodd" clip-rule="evenodd" d="M9 4.5C9 6.98528 6.98528 9 4.5 9C2.01472 9 0 6.98528 0 4.5C0 2.01472 2.01472 0 4.5 0C6.98528 0 9 2.01472 9 4.5ZM4.5 2C4.22386 2 4 2.22386 4 2.5V4L2.5 4C2.22386 4 2 4.22386 2 4.5C2 4.77614 2.22386 5 2.5 5H4V6.5C4 6.77614 4.22386 7 4.5 7C4.77614 7 5 6.77614 5 6.5V5H6.5C6.77614 5 7 4.77614 7 4.5C7 4.22386 6.77614 4 6.5 4H5V2.5C5 2.22386 4.77614 2 4.5 2ZM10 4.5C10 4.84149 9.96887 5.17571 9.9093 5.49999H11.5C12.0523 5.49999 12.5 5.05227 12.5 4.49999C12.5 3.9477 12.0523 3.49999 11.5 3.49999H9.9093C9.96887 3.82427 10 4.1585 10 4.5ZM8.27496 8.49999C7.89804 8.85582 7.47089 9.15896 7.00519 9.39764C7.00177 9.43129 7 9.46544 7 9.49999C7 10.0523 7.44772 10.5 8 10.5H9.38461C9.93689 10.5 10.3846 10.0523 10.3846 9.49999C10.3846 8.9477 9.93689 8.49999 9.38461 8.49999H8.27496ZM22 1.49999H9.11053C8.87204 1.1342 8.59119 0.798546 8.27493 0.499987H22C24.2091 0.499987 26 2.29085 26 4.49999V14.5C26 16.7091 24.2091 18.5 22 18.5H8C5.79086 18.5 4 16.7091 4 14.5V9.97758C4.16467 9.99242 4.33145 10 4.5 10C4.66855 10 4.83533 9.99242 5 9.97758V14.5C5 16.1568 6.34314 17.5 8 17.5H22C23.6569 17.5 25 16.1568 25 14.5V4.49999C25 2.84313 23.6569 1.49999 22 1.49999ZM11.6538 14.5C11.6538 13.9477 11.2061 13.5 10.6538 13.5H8C7.44772 13.5 7 13.9477 7 14.5C7 15.0523 7.44772 15.5 8 15.5H10.6538C11.2061 15.5 11.6538 15.0523 11.6538 14.5ZM22 3.49999C22.5523 3.49999 23 3.9477 23 4.49999C23 5.05227 22.5523 5.49999 22 5.49999H17C16.4477 5.49999 16 5.05227 16 4.49999C16 3.9477 16.4477 3.49999 17 3.49999H22ZM19 8.49999C19.5523 8.49999 20 8.9477 20 9.49999C20 10.0523 19.5523 10.5 19 10.5H17C16.4477 10.5 16 10.0523 16 9.49999C16 8.9477 16.4477 8.49999 17 8.49999H19ZM19 14.5C19 13.9477 18.5523 13.5 18 13.5H17C16.4477 13.5 16 13.9477 16 14.5C16 15.0523 16.4477 15.5 17 15.5H18C18.5523 15.5 19 15.0523 19 14.5Z" fill="black"/>
</svg>
