<svg width="18" height="15" viewBox="0 0 18 15" fill="none" xmlns="http://www.w3.org/2000/svg">
<path fill-rule="evenodd" clip-rule="evenodd" d="M10.3874 0.103861C10.1686 -0.0646125 9.8547 -0.0238183 9.68623 0.194977C9.51775 0.413772 9.55855 0.727715 9.77734 0.896189L15.9306 5.6342H10.166C7.54027 5.6342 5.35379 6.1742 3.63671 7.44667C1.9168 8.72123 0.731616 10.6832 0.0165855 13.4004C-0.0536911 13.6674 0.105825 13.9409 0.372876 14.0111C0.639926 14.0814 0.913383 13.9219 0.98366 13.6548C1.65987 11.0853 2.74713 9.35056 4.2321 8.2501C5.7199 7.14755 7.67074 6.6342 10.166 6.6342H15.9306L9.77735 11.3721C9.55855 11.5406 9.51775 11.8545 9.68623 12.0733C9.8547 12.2921 10.1686 12.3329 10.3874 12.1645L17.7045 6.53036C17.8067 6.45168 17.8737 6.33726 17.8934 6.21177C17.8974 6.1863 17.8995 6.16037 17.8995 6.1342C17.8995 6.10802 17.8974 6.08209 17.8934 6.05662C17.8824 5.98566 17.8564 5.91963 17.8188 5.86186C17.7883 5.81497 17.7499 5.77298 17.7045 5.73803L10.3874 0.103861Z" fill="black"/>
</svg>
