<svg width="18" height="18" viewBox="0 0 18 18" fill="none" xmlns="http://www.w3.org/2000/svg">
<path d="M18 17.0295L12.7354 11.7649C13.911 10.3399 14.493 8.51712 14.3607 6.67455C14.2284 4.83197 13.3918 3.11103 12.0247 1.86868C10.6575 0.626332 8.86457 -0.0420901 7.01777 0.00205534C5.17098 0.0462008 3.41204 0.799526 2.10578 2.10578C0.799526 3.41204 0.0462008 5.17098 0.00205534 7.01777C-0.0420901 8.86457 0.626332 10.6575 1.86868 12.0247C3.11103 13.3918 4.83197 14.2284 6.67455 14.3607C8.51712 14.493 10.3399 13.911 11.7649 12.7354L17.0295 18L18 17.0295ZM3.05547 11.3071C2.23949 10.492 1.6836 9.45326 1.45813 8.32219C1.23265 7.19111 1.34773 6.01857 1.78879 4.95291C2.22985 3.88725 2.97709 2.97636 3.93596 2.33547C4.89483 1.69458 6.02225 1.35249 7.17558 1.35249C8.32891 1.35249 9.45632 1.69458 10.4152 2.33547C11.3741 2.97636 12.1213 3.88725 12.5624 4.95291C13.0034 6.01857 13.1185 7.19111 12.893 8.32219C12.6676 9.45326 12.1117 10.492 11.2957 11.3071C10.2016 12.3979 8.71952 13.01 7.17463 13.0092C5.62974 13.0083 4.1483 12.3945 3.05547 11.3025V11.3071Z" fill="black"/>
</svg>
