<svg width="35" height="35" viewBox="0 0 35 35" fill="none" xmlns="http://www.w3.org/2000/svg">
<path d="M34.21 12.893C34.56 14.2 32.826 15.764 32.826 17.056C32.827 18.393 34.551 19.957 34.212 21.219C33.868 22.498 31.585 22.989 30.927 24.129C30.269 25.269 30.986 27.491 30.05 28.428C29.127 29.352 26.91 28.642 25.752 29.309C24.633 29.954 24.146 32.238 22.839 32.589C21.532 32.939 19.968 31.205 18.676 31.205C17.339 31.206 15.775 32.93 14.513 32.591C13.234 32.247 12.743 29.964 11.603 29.306C10.463 28.648 8.241 29.365 7.304 28.429C6.38 27.506 7.09 25.289 6.423 24.131C5.778 23.012 3.494 22.525 3.143 21.218C2.793 19.911 4.527 18.347 4.527 17.055C4.526 15.718 2.802 14.154 3.141 12.892C3.485 11.613 5.768 11.122 6.426 9.98201C7.084 8.84201 6.367 6.62001 7.303 5.68301C8.226 4.75901 10.443 5.46901 11.601 4.80201C12.72 4.15701 13.207 1.87301 14.514 1.52301C15.821 1.17301 17.385 2.90701 18.677 2.90701C20.014 2.90601 21.578 1.18201 22.84 1.52101C24.119 1.86501 24.61 4.14801 25.75 4.80601C26.89 5.46401 29.112 4.74701 30.049 5.68301C30.973 6.60601 30.263 8.82301 30.93 9.98101C31.576 11.099 33.86 11.586 34.21 12.893Z" fill="url(#paint0_linear_27_94)"/>
<path d="M21.538 34.924C20.681 34.924 19.849 34.466 19.098 34.052C18.506 33.727 17.895 33.39 17.463 33.39C16.997 33.39 16.364 33.737 15.752 34.072C14.849 34.566 13.827 35.128 12.802 34.851C11.765 34.573 11.156 33.566 10.617 32.677C10.261 32.087 9.891 31.478 9.501 31.252C9.11 31.026 8.398 31.012 7.709 30.998C6.67 30.977 5.493 30.952 4.733 30.192C4.443 29.903 4.442 29.433 4.732 29.143C5.022 28.854 5.491 28.852 5.781 29.143C6.12 29.481 6.943 29.497 7.739 29.514C8.615 29.532 9.521 29.55 10.241 29.966C10.962 30.382 11.431 31.157 11.885 31.907C12.297 32.589 12.724 33.293 13.185 33.417C13.63 33.539 14.346 33.147 15.037 32.769C15.812 32.345 16.614 31.906 17.459 31.905H17.46C18.273 31.905 19.055 32.336 19.811 32.752C20.519 33.142 21.258 33.548 21.734 33.415C22.219 33.286 22.651 32.57 23.069 31.879C23.516 31.141 23.978 30.376 24.683 29.97C25.414 29.548 26.329 29.528 27.211 29.507C27.999 29.489 28.813 29.471 29.14 29.143C29.479 28.805 29.495 27.981 29.512 27.185C29.53 26.309 29.548 25.403 29.964 24.682C30.38 23.961 31.156 23.492 31.906 23.037C32.587 22.625 33.292 22.199 33.416 21.738C33.536 21.29 33.145 20.576 32.767 19.885C32.342 19.11 31.904 18.308 31.903 17.463C31.903 16.649 32.334 15.867 32.75 15.111C33.141 14.403 33.543 13.671 33.413 13.187C33.284 12.703 32.569 12.27 31.878 11.853C31.139 11.406 30.374 10.944 29.968 10.239C29.546 9.507 29.526 8.593 29.505 7.71C29.487 6.922 29.469 6.108 29.141 5.781C28.803 5.443 27.98 5.427 27.183 5.41C26.307 5.392 25.401 5.373 24.68 4.957C23.959 4.54 23.491 3.765 23.036 3.015C22.624 2.334 22.197 1.629 21.736 1.505C21.288 1.385 20.574 1.776 19.883 2.154C19.108 2.578 18.306 3.017 17.461 3.018H17.46C16.647 3.018 15.865 2.587 15.109 2.171C14.401 1.781 13.671 1.379 13.185 1.507C12.701 1.637 12.269 2.352 11.851 3.043C11.404 3.782 10.942 4.546 10.237 4.953C9.505 5.375 8.591 5.396 7.707 5.416C6.922 5.435 6.108 5.454 5.781 5.781C5.443 6.12 5.427 6.943 5.41 7.74C5.392 8.616 5.373 9.522 4.957 10.242C4.54 10.963 3.765 11.432 3.015 11.886C2.334 12.299 1.629 12.725 1.505 13.186C1.385 13.634 1.776 14.348 2.154 15.039C2.578 15.814 3.017 16.616 3.018 17.461C3.018 18.275 2.588 19.057 2.171 19.814C1.781 20.522 1.379 21.253 1.508 21.737C1.638 22.221 2.353 22.654 3.044 23.072C3.783 23.518 4.547 23.981 4.954 24.686C5.159 25.04 5.037 25.495 4.682 25.699C4.327 25.903 3.873 25.782 3.669 25.427C3.453 25.053 2.855 24.692 2.277 24.342C1.379 23.798 0.360003 23.183 0.0760029 22.122C-0.208997 21.061 0.366003 20.018 0.872003 19.099C1.198 18.507 1.536 17.895 1.535 17.463C1.535 16.997 1.188 16.364 0.853003 15.752C0.358003 14.849 -0.201997 13.825 0.0730029 12.802C0.352003 11.765 1.359 11.156 2.247 10.618C2.837 10.26 3.447 9.892 3.672 9.5C3.898 9.11 3.912 8.397 3.926 7.708C3.948 6.67 3.973 5.494 4.731 4.733C5.479 3.984 6.646 3.958 7.675 3.934C8.373 3.918 9.094 3.902 9.498 3.669C9.873 3.453 10.234 2.855 10.583 2.277C11.126 1.379 11.742 0.359996 12.803 0.0759959C13.861 -0.210004 14.906 0.364996 15.826 0.871996C16.418 1.198 17.03 1.535 17.461 1.535C17.927 1.535 18.56 1.188 19.171 0.852996C20.075 0.357996 21.103 -0.202004 22.121 0.0729959C23.158 0.351996 23.767 1.359 24.306 2.247C24.662 2.837 25.032 3.446 25.422 3.672C25.812 3.898 26.525 3.912 27.214 3.926C28.252 3.947 29.43 3.972 30.19 4.731C30.939 5.479 30.965 6.646 30.989 7.676C31.005 8.373 31.021 9.094 31.254 9.498C31.47 9.872 32.067 10.233 32.646 10.582C33.545 11.125 34.564 11.741 34.848 12.803C35.132 13.863 34.558 14.906 34.051 15.826C33.725 16.418 33.388 17.03 33.389 17.462C33.389 17.928 33.736 18.561 34.071 19.172C34.565 20.075 35.126 21.1 34.85 22.122C34.572 23.159 33.565 23.768 32.676 24.306C32.086 24.662 31.477 25.032 31.251 25.423C31.025 25.814 31.011 26.526 30.997 27.214C30.976 28.253 30.951 29.43 30.192 30.191C29.444 30.94 28.276 30.966 27.247 30.99C26.55 31.006 25.829 31.022 25.425 31.255C25.051 31.471 24.69 32.068 24.34 32.647C23.797 33.546 23.181 34.565 22.119 34.849C21.926 34.901 21.731 34.924 21.538 34.924Z" fill="black"/>
<path d="M12.0524 23.9579L10.3543 24.4129L8.58711 17.8177L6.41245 18.4004L6.03378 16.9872L12.0813 15.3668L12.46 16.78L10.2852 17.3627L12.0524 23.9579Z" fill="black"/>
<path d="M21.4284 17.142C21.7836 18.4677 21.728 19.5746 21.2614 20.4629C20.7949 21.3512 19.9481 21.9598 18.7211 22.2885C17.4942 22.6173 16.4564 22.5137 15.6083 21.9776C14.7602 21.4417 14.1575 20.5074 13.8004 19.1743C13.4432 17.8414 13.5 16.7352 13.9708 15.8554C14.4416 14.9758 15.2923 14.3711 16.5231 14.0413C17.7537 13.7116 18.7899 13.8136 19.6316 14.3474C20.4732 14.8813 21.0722 15.8128 21.4284 17.142ZM15.5836 18.7082C15.8233 19.6029 16.1737 20.2312 16.6346 20.593C17.0956 20.9548 17.6638 21.0452 18.3394 20.8642C19.6943 20.5011 20.1305 19.4195 19.648 17.6191C19.1647 15.8151 18.2492 15.0936 16.9018 15.4546C16.2261 15.6357 15.7776 15.9995 15.5561 16.5461C15.3346 17.0928 15.3439 17.8136 15.5836 18.7082Z" fill="black"/>
<path d="M30.0531 19.1346L28.3605 19.5882L26.5933 12.993L23.6463 13.7826L25.4135 20.3778L23.7153 20.8329L21.5694 12.8243L27.9072 11.1261L30.0531 19.1346Z" fill="black"/>
<defs>
<linearGradient id="paint0_linear_27_94" x1="14.5153" y1="1.52221" x2="22.8394" y2="32.5881" gradientUnits="userSpaceOnUse">
<stop stop-color="#FFE600"/>
<stop offset="1" stop-color="#FFB800"/>
</linearGradient>
</defs>
</svg>
