<svg width="49" height="49" viewBox="0 0 49 49" fill="none" xmlns="http://www.w3.org/2000/svg">
<circle cx="24.2583" cy="24.2583" r="13" fill="url(#paint0_linear_27_82)"/>
<path fill-rule="evenodd" clip-rule="evenodd" d="M19.7382 10.1837C26.9578 8.24924 34.3784 12.5336 36.3129 19.7531C37.3059 23.4591 36.6603 27.2181 34.8201 30.2608C33.356 27.2557 30.424 25.2651 27.1651 24.9477C27.5727 24.5405 27.9341 24.0738 28.2359 23.5511C30.09 20.3396 28.9897 16.233 25.7781 14.3788C22.5666 12.5246 18.46 13.625 16.6058 16.8365C14.7517 20.0481 15.852 24.1546 19.0635 26.0088C19.5861 26.3105 20.1323 26.534 20.6887 26.6829C17.6372 28.8642 16.0552 32.7327 16.933 36.5731L17.0184 36.9465L17.3709 37.0963C20.3512 38.3625 23.7621 38.6797 27.1317 37.7768C35.1515 35.6279 39.9107 27.3847 37.7618 19.3649C35.6129 11.3451 27.3697 6.58594 19.35 8.73483C11.3302 10.8837 6.57097 19.1269 8.71986 27.1467C9.39692 29.6735 10.6802 31.8787 12.3716 33.6452C12.6581 33.9444 13.1329 33.9547 13.432 33.6682C13.7312 33.3817 13.7415 32.907 13.455 32.6078C11.9337 31.019 10.7789 29.0355 10.1688 26.7585C8.23427 19.5389 12.5186 12.1182 19.7382 10.1837ZM23.7873 25.2262C23.7815 25.2277 23.7758 25.2293 23.77 25.2308C23.7645 25.2323 23.7589 25.2338 23.7534 25.2353C22.4689 25.5748 21.0551 25.4266 19.8135 24.7098C17.3194 23.2698 16.4649 20.0806 17.9049 17.5865C19.3448 15.0924 22.534 14.2379 25.0281 15.6778C27.5222 17.1178 28.3768 20.307 26.9368 22.8011C26.22 24.0427 25.0696 24.878 23.7873 25.2262ZM24.1412 26.6843C20.0823 27.7812 17.5893 31.7972 18.3187 35.8631C20.9141 36.8789 23.844 37.1048 26.7435 36.3279C29.6421 35.5512 32.0676 33.8902 33.8074 31.7128C32.4059 27.8272 28.2391 25.5959 24.1758 26.675C24.1643 26.6781 24.1527 26.6812 24.1412 26.6843Z" fill="black"/>
<defs>
<linearGradient id="paint0_linear_27_82" x1="24.2583" y1="11.2583" x2="24.2583" y2="37.2583" gradientUnits="userSpaceOnUse">
<stop stop-color="#FFE600"/>
<stop offset="1" stop-color="#FFB800"/>
</linearGradient>
</defs>
</svg>
