<svg width="42" height="42" viewBox="0 0 42 42" fill="none" xmlns="http://www.w3.org/2000/svg">
<path d="M40.5769 22.4002C40.5769 32.4272 32.4484 40.5556 22.4215 40.5556C12.3946 40.5556 4.26611 32.4272 4.26611 22.4002C4.26611 12.3733 12.3946 4.24484 22.4215 4.24484C32.4484 4.24484 40.5769 12.3733 40.5769 22.4002Z" fill="#FFDD5C"/>
<path fill-rule="evenodd" clip-rule="evenodd" d="M16.1084 2.74408C26.1911 0.0424486 36.5546 6.02581 39.2562 16.1084C40.643 21.2841 39.7413 26.5338 37.1714 30.7831C35.1267 26.5864 31.0322 23.8064 26.481 23.3631C27.0501 22.7944 27.5549 22.1425 27.9764 21.4125C30.5659 16.9274 29.0291 11.1923 24.544 8.60277C20.0589 6.01328 14.3238 7.55 11.7343 12.0351C9.14476 16.5203 10.6815 22.2554 15.1666 24.8449C15.8963 25.2662 16.6591 25.5782 17.4361 25.7862C13.1744 28.8326 10.9649 34.2352 12.1908 39.5987L12.31 40.1201L12.8023 40.3293C16.9645 42.0977 21.7281 42.5406 26.434 41.2797C37.6342 38.2786 44.2807 26.7664 41.2797 15.5663C38.2786 4.36609 26.7664 -2.28047 15.5663 0.720609C4.36609 3.72169 -2.28047 15.2339 0.720609 26.434C1.66616 29.9629 3.45832 33.0427 5.82056 35.5096C6.22064 35.9275 6.88367 35.9418 7.30149 35.5418C7.71931 35.1417 7.73369 34.4786 7.33361 34.0608C5.20895 31.8419 3.59619 29.0719 2.74408 25.8918C0.0424491 15.8092 6.02581 5.44571 16.1084 2.74408ZM21.7713 23.7498C21.7606 23.7526 21.7499 23.7555 21.7392 23.7584C21.7281 23.7613 21.7171 23.7643 21.706 23.7673C19.9148 24.238 17.9446 24.0298 16.214 23.0307C12.7309 21.0197 11.5374 16.5657 13.5485 13.0826C15.5595 9.59938 20.0134 8.40595 23.4966 10.417C26.9798 12.428 28.1732 16.8819 26.1622 20.3651C25.1625 22.0966 23.559 23.2623 21.7713 23.7498ZM22.2497 25.7904C16.5858 27.3254 13.1079 32.9314 14.126 38.6071C17.7507 40.0258 21.8425 40.3412 25.8918 39.2562C29.9399 38.1715 33.3273 35.8517 35.757 32.811C33.8007 27.3871 27.9862 24.2712 22.3142 25.7731C22.2927 25.7789 22.2712 25.7847 22.2497 25.7904Z" fill="black"/>
</svg>
