<svg width="120" height="35" viewBox="0 0 120 35" fill="none" xmlns="http://www.w3.org/2000/svg">
<path d="M40.2682 29.6467C37.7492 28.9715 35.487 27.5646 33.7676 25.6038C32.0481 23.643 30.9487 21.2163 30.6083 18.6307C30.268 16.0451 30.7019 13.4166 31.8553 11.0776C33.0087 8.73863 34.8298 6.79415 37.0882 5.49006C40.1143 3.78572 43.6905 3.34395 47.0403 4.26068C50.3901 5.17741 53.243 7.37863 54.9795 10.3863C56.716 13.394 57.1958 16.9653 56.3148 20.3247C55.4338 23.6841 53.2631 26.5603 50.2741 28.3287C48.7763 29.1991 47.1207 29.7638 45.4032 29.99C43.6857 30.2163 41.9403 30.0996 40.2682 29.6467Z" fill="black"/>
<path d="M36.355 27.7894C39.6497 29.4328 43.1726 30.5345 46.7089 31.4691C50.2545 32.3831 53.8637 33.0291 57.5062 33.4018C59.9459 33.6456 62.3982 33.7404 64.8495 33.6859C58.7434 34.8168 52.4036 34.0177 46.462 32.3744C42.9257 31.3124 39.3497 29.9691 36.3497 27.7894H36.355Z" fill="black"/>
<path d="M52.1788 31.1402C55.4947 31.5517 58.9035 31.4216 62.2221 31.2065C65.5627 30.976 68.8869 30.5505 72.1778 29.9322C74.3792 29.5233 76.5546 28.9852 78.6928 28.3207C71.769 31.6552 59.631 33.0835 52.1788 31.1428V31.1402Z" fill="black"/>
<path d="M49.4544 27.5772C54.3314 28.7082 59.3172 28.4692 64.2659 28.0232C59.4606 29.3268 54.1084 29.5418 49.4544 27.5772Z" fill="black"/>
<path d="M8.20084 8.0268C9.44482 8.01515 10.6762 8.27684 11.8079 8.79339C12.9396 9.30994 13.9441 10.0687 14.7504 11.0162L12.8468 12.8985C12.3086 12.206 11.6176 11.6474 10.8278 11.2661C10.038 10.8848 9.17074 10.6911 8.29376 10.7002C5.03094 10.7002 2.67344 13.0896 2.67344 16.4082C2.67344 19.7267 5.04422 22.1188 8.29376 22.1188C9.60802 22.1222 10.8965 21.7541 12.0106 21.0568V18.3117H8.23004V15.6383H14.6813V22.2993C12.9466 23.9123 10.6625 24.8038 8.29376 24.7922C3.62387 24.7922 0 21.1683 0 16.4082C0 11.648 3.5575 8.0268 8.20084 8.0268Z" fill="black"/>
<path d="M16.6544 8.25253H23.8225C26.8357 8.25253 29.0552 10.6419 29.0552 13.849C29.0552 15.8666 28.1047 17.5658 26.6313 18.495L29.4401 24.5666H26.4879L24.0986 19.4242C23.9408 19.4418 23.782 19.4489 23.6233 19.4454H19.3278V24.5666H16.6544V8.25253ZM19.3278 16.772H23.4508C25.2428 16.772 26.3977 15.6171 26.3977 13.8516C26.3977 12.0861 25.264 10.9313 23.4773 10.9313H19.3278V16.772Z" fill="black"/>
<path d="M59.4869 20.2153C60.8472 21.4731 62.6416 22.1553 64.4939 22.1189C66.5567 22.1189 68.0063 21.1897 68.0063 19.9658C68.0063 18.7419 66.6789 18.0862 63.8833 17.2924C61.2284 16.5463 58.5125 15.503 58.5125 12.58C58.5125 9.70213 61.0054 8.02692 64.3532 8.02692C65.4655 8.02957 66.5651 8.26231 67.5831 8.71052C68.601 9.15873 69.5152 9.81271 70.2682 10.6313L68.3647 12.5136C67.8325 11.9339 67.1842 11.4728 66.4619 11.1603C65.7396 10.8479 64.9596 10.6912 64.1727 10.7004C62.293 10.7004 61.2046 11.4012 61.2046 12.5587C61.2046 13.5782 62.4045 14.0747 65.0329 14.8233C68.0461 15.6835 70.6744 16.9074 70.6744 19.8994C70.6744 22.8914 67.8019 24.8162 64.4036 24.8162C61.9007 24.8427 59.4866 23.8899 57.6763 22.1614L59.4869 20.2153Z" fill="black"/>
<path d="M72.5172 24.5666V8.25253H75.1906V14.7569H82.6906V8.25253H85.364V24.5666H82.6906V17.4357H75.1906V24.5666H72.5172Z" fill="black"/>
<path d="M89.2408 21.4393C89.5726 21.4393 89.897 21.5377 90.173 21.7221C90.4489 21.9064 90.6639 22.1685 90.7909 22.4751C90.9179 22.7817 90.9511 23.119 90.8864 23.4445C90.8217 23.77 90.6619 24.0689 90.4272 24.3036C90.1926 24.5383 89.8936 24.6981 89.5681 24.7628C89.2426 24.8275 88.9053 24.7943 88.5987 24.6673C88.2921 24.5403 88.03 24.3253 87.8457 24.0493C87.6613 23.7734 87.5629 23.449 87.5629 23.1172C87.5626 22.8967 87.6057 22.6784 87.6899 22.4747C87.7741 22.2709 87.8977 22.0858 88.0536 21.93C88.2094 21.7741 88.3945 21.6505 88.5983 21.5663C88.802 21.4821 89.0203 21.439 89.2408 21.4393Z" fill="black"/>
<path d="M93.1372 8.25253H100.305C103.319 8.25253 105.541 10.6419 105.541 13.849C105.541 15.8666 104.588 17.5658 103.117 18.495L105.928 24.5666H102.981L100.592 19.4242C100.434 19.4419 100.275 19.449 100.117 19.4454H95.8106V24.5666H93.1372V8.25253ZM95.8106 16.772H99.9336C101.723 16.772 102.878 15.6171 102.878 13.8516C102.878 12.0861 101.747 10.9313 99.9575 10.9313H95.8106V16.772Z" fill="black"/>
<path d="M107.299 18.2905V8.25253H109.973V18.2905C109.973 20.6454 111.401 22.1427 113.644 22.1427C115.888 22.1427 117.313 20.6454 117.313 18.2905V8.25253H120V18.2905C120 22.1427 117.417 24.7923 113.657 24.7923C109.898 24.7923 107.299 22.1427 107.299 18.2905Z" fill="black"/>
<path d="M32.9114 16.3796L29.4114 18.519L29.3657 17.0434L33.0108 14.7582C32.947 15.2964 32.9139 15.8377 32.9114 16.3796Z" fill="white"/>
<path d="M43.6801 28.3603C50.0553 28.3603 55.2234 23.1922 55.2234 16.817C55.2234 10.4419 50.0553 5.27374 43.6801 5.27374C37.305 5.27374 32.1368 10.4419 32.1368 16.817C32.1368 23.1922 37.305 28.3603 43.6801 28.3603Z" fill="white"/>
<path d="M43.5 28C49.299 28 54 23.299 54 17.5C54 11.701 49.299 7 43.5 7C37.701 7 33 11.701 33 17.5C33 23.299 37.701 28 43.5 28Z" fill="url(#paint0_linear_2_21)"/>
<path d="M51.1138 16.1662L50.6683 14.4747L50.0435 12.1084C49.8338 11.3047 49.6219 10.5021 49.4078 9.70083C49.3751 9.57664 49.3399 9.45175 49.3079 9.32499L38.903 15.3322C39.2277 15.6694 39.5487 16 39.8689 16.3331C39.8758 16.3443 39.8851 16.3538 39.8961 16.3609C39.9071 16.368 39.9196 16.3726 39.9326 16.3742C39.9456 16.3759 39.9588 16.3746 39.9713 16.3704C39.9837 16.3663 39.9951 16.3594 40.0045 16.3502C42.7757 14.7474 45.5471 13.1473 48.3186 11.5501L48.4032 11.5013L49.7276 16.5286C49.71 16.5416 49.6913 16.5532 49.6717 16.5631L42.678 20.5792C42.6351 20.6062 42.6106 20.6051 42.5765 20.5685C40.8105 18.7375 39.04 16.9136 37.2773 15.0808C37.0431 14.8366 36.4985 14.2125 36.4985 14.2125C36.4985 14.2125 31.7751 17.0696 31.2944 17.3558L32.0291 18.5834C32.3543 18.3956 36.0827 16.113 36.2063 16.0416L40.7643 20.7563C40.7643 20.7563 41.3459 21.3656 41.643 21.6624L42.38 22.4095L51.3932 17.1646C51.3932 17.1646 51.2035 16.4981 51.1138 16.1662Z" fill="black"/>
<path d="M44.7877 25.817C44.382 25.7083 44.0176 25.4817 43.7406 25.1659C43.4637 24.85 43.2866 24.4592 43.2317 24.0427C43.1769 23.6262 43.2468 23.2029 43.4326 22.8261C43.6184 22.4494 43.9117 22.1362 44.2755 21.9262C44.6393 21.7161 45.0572 21.6187 45.4764 21.6462C45.8955 21.6736 46.2971 21.8248 46.6304 22.0805C46.9636 22.3362 47.2136 22.685 47.3486 23.0828C47.4836 23.4806 47.4977 23.9094 47.389 24.3152C47.2432 24.8593 46.8872 25.3232 46.3994 25.6048C45.9116 25.8865 45.3318 25.9628 44.7877 25.817ZM45.5237 23.0705C45.3849 23.035 45.2387 23.0414 45.1036 23.0888C44.9685 23.1363 44.8504 23.2227 44.7644 23.3372C44.6783 23.4518 44.6281 23.5892 44.6201 23.7322C44.6122 23.8752 44.6467 24.0174 44.7195 24.1408C44.7922 24.2641 44.8999 24.3632 45.0289 24.4254C45.1579 24.4877 45.3024 24.5103 45.4443 24.4904C45.5861 24.4706 45.7189 24.4091 45.8259 24.3138C45.9328 24.2186 46.0091 24.0938 46.0452 23.9551C46.0696 23.8627 46.0755 23.7663 46.0625 23.6716C46.0495 23.5768 46.0179 23.4856 45.9695 23.4031C45.9211 23.3206 45.8568 23.2486 45.7804 23.1911C45.704 23.1335 45.617 23.0917 45.5243 23.068L45.5237 23.0705Z" fill="black"/>
<path d="M50.3791 22.593C49.9734 22.4843 49.609 22.2577 49.332 21.9419C49.055 21.6261 48.8779 21.2352 48.8231 20.8187C48.7683 20.4023 48.8382 19.9789 49.024 19.6022C49.2097 19.2254 49.5031 18.9122 49.8669 18.7022C50.2306 18.4922 50.6485 18.3947 51.0677 18.4222C51.4869 18.4497 51.8885 18.6008 52.2217 18.8565C52.555 19.1123 52.8049 19.4611 52.94 19.8588C53.075 20.2566 53.089 20.6855 52.9803 21.0912C52.8345 21.6353 52.4786 22.0992 51.9907 22.3809C51.5029 22.6625 50.9232 22.7388 50.3791 22.593ZM51.115 19.8466C50.9766 19.8095 50.8302 19.8143 50.6945 19.8603C50.5587 19.9064 50.4397 19.9917 50.3524 20.1054C50.2652 20.2192 50.2136 20.3562 50.2042 20.4992C50.1948 20.6423 50.2281 20.7849 50.2998 20.909C50.3714 21.0332 50.4783 21.1333 50.6069 21.1967C50.7354 21.2601 50.8799 21.2839 51.022 21.2652C51.1642 21.2465 51.2975 21.1861 51.4053 21.0916C51.5131 20.9971 51.5904 20.8727 51.6275 20.7342C51.6773 20.5486 51.6512 20.3507 51.5551 20.1843C51.459 20.0178 51.3007 19.8963 51.115 19.8466Z" fill="black"/>
<defs>
<linearGradient id="paint0_linear_2_21" x1="43.5" y1="7" x2="43.5" y2="28" gradientUnits="userSpaceOnUse">
<stop stop-color="#FFE600"/>
<stop offset="1" stop-color="#FFB800"/>
</linearGradient>
</defs>
</svg>
